<?xml version="1.0" encoding="utf-8"?>
<!-- Generator: Adobe Illustrator 19.0.0, SVG Export Plug-In . SVG Version: 6.00 Build 0)  -->
<svg version="1.1" id="Layer_2" xmlns="http://www.w3.org/2000/svg" xmlns:xlink="http://www.w3.org/1999/xlink" x="0px" y="0px"
	 viewBox="0 0 1400 980" style="enable-background:new 0 0 1400 980;" xml:space="preserve">
<style type="text/css">
	.st0{fill:url(#XMLID_362_);}
	.st1{fill:#092334;}
	.st2{fill:#334954;}
	.st3{fill:#516976;}
	.st4{fill:#EF4223;}
	.st5{fill:#FFFFFF;}
	.st6{font-family:'JosefinSans-Regular';}
	.st7{font-size:28.4608px;}
	.st8{fill:#1B7967;}
	.st9{clip-path:url(#XMLID_363_);fill:#092334;}
	.st10{clip-path:url(#XMLID_363_);}
	.st11{fill:url(#XMLID_364_);}
	.st12{fill:#F7C042;}
	.st13{fill:#1DAA91;}
	.st14{clip-path:url(#XMLID_363_);fill:#FEDC00;}
	.st15{clip-path:url(#XMLID_363_);fill:#FFFFFF;}
	.st16{font-size:12.5935px;}
	.st17{clip-path:url(#XMLID_363_);fill:#EF4223;}
	.st18{clip-path:url(#XMLID_363_);fill:#F7C042;}
	.st19{clip-path:url(#XMLID_363_);fill:#1DAA91;}
	.st20{clip-path:url(#XMLID_365_);fill:#092334;}
	.st21{clip-path:url(#XMLID_365_);}
	.st22{fill:url(#XMLID_366_);}
	.st23{fill:url(#XMLID_369_);}
	.st24{fill:url(#XMLID_429_);}
	.st25{fill:url(#XMLID_432_);}
	.st26{clip-path:url(#XMLID_365_);fill:#FFFFFF;}
	.st27{fill:#0B77BE;}
	.st28{clip-path:url(#XMLID_365_);fill:#066296;}
	.st29{opacity:0.5;clip-path:url(#XMLID_365_);}
	.st30{font-size:55.9064px;}
	.st31{font-size:113.2547px;}
	.st32{clip-path:url(#XMLID_365_);fill:none;}
	.st33{clip-path:url(#XMLID_365_);fill:#FEDC00;}
	.st34{clip-path:url(#XMLID_365_);fill:#1B7967;}
	.st35{clip-path:url(#XMLID_365_);fill:#EF4223;}
	.st36{clip-path:url(#XMLID_365_);fill:#DA2D27;}
	.st37{clip-path:url(#XMLID_365_);fill:#DCB926;}
	.st38{clip-path:url(#XMLID_365_);fill:#CACAC5;}
	.st39{clip-path:url(#XMLID_365_);fill:none;stroke:#FFFFFF;stroke-miterlimit:10;}
</style>
<linearGradient id="XMLID_362_" gradientUnits="userSpaceOnUse" x1="33.6454" y1="1209.4697" x2="861.7283" y2="315.3804">
	<stop  offset="0" style="stop-color:#A7A9AC"/>
	<stop  offset="0.9965" style="stop-color:#E6E7E8"/>
</linearGradient>
<rect id="XMLID_65_" x="0" class="st0" width="1400" height="980"/>
<g id="XMLID_315_">
	<rect id="XMLID_4_" x="655.5" y="124.1" class="st1" width="62.5" height="731.8"/>
	<path id="XMLID_169_" class="st2" d="M711.2,743.6c0,0-24.4,3.5-55.7,19l0,42.7C676.7,790.2,698.1,769.7,711.2,743.6z"/>
	<path id="XMLID_172_" class="st3" d="M655.9,783.9l0,2.8c10.3-7.9,20-15.7,27.9-22.6C683.7,764,671.8,772.5,655.9,783.9z"/>
	<path id="XMLID_289_" class="st4" d="M664.2,740c-3.2-4.7-6.1-13.6-8.7-24v139.9h16.8c0,0-5.1-31.6,0-41.9
		C677.4,803.6,675.2,756.1,664.2,740z"/>
	<g id="XMLID_73_">
		<g id="XMLID_112_">
			<text id="XMLID_461_" transform="matrix(4.489660e-011 -1 1 4.489660e-011 695.3766 830.1581)" class="st5 st6 st7">BECOME A BETTER YOU</text>
		</g>
	</g>
	<path id="XMLID_72_" class="st8" d="M718,832.7c0,0-5.7,15.4-6.8,23.2h6.8V832.7z"/>
</g>
<g id="XMLID_173_">
	<defs>
		<rect id="XMLID_174_" x="79.4" y="124.1" width="519" height="731.8"/>
	</defs>
	<clipPath id="XMLID_363_">
		<use xlink:href="#XMLID_174_"  style="overflow:visible;"/>
	</clipPath>
	<rect id="XMLID_15_" x="79.4" y="124.1" class="st9" width="519" height="731.8"/>
	<g id="XMLID_400_" class="st10">
		<linearGradient id="XMLID_364_" gradientUnits="userSpaceOnUse" x1="277.1867" y1="788.7596" x2="301.52" y2="794.4263">
			<stop  offset="0" style="stop-color:#334954"/>
			<stop  offset="1" style="stop-color:#2B333A"/>
		</linearGradient>
		<path id="XMLID_324_" class="st11" d="M290,861.2c0,0-48.2-101.4-33.2-127.6c15-26.2,44.1-14.7,48.6,26.1
			c4.5,40.9,0.4,98.5,0.4,98.5L290,861.2z"/>
		<path id="XMLID_394_" class="st3" d="M296.1,860.1l-25.7-139.3c0,0,1.6-0.7,2.9-0.9l25.4,139.6L296.1,860.1z"/>
		<path id="XMLID_395_" class="st3" d="M280.2,760l17.6-25.5c0,0,1.2,2.1,1.7,3.2l-18.7,25.4L280.2,760z"/>
		<polygon id="XMLID_393_" class="st3" points="285.4,794.3 306.5,774.2 306.7,776.8 286.3,796.4 		"/>
		<polygon id="XMLID_396_" class="st3" points="291.1,825.1 307.4,808.7 307.4,811.7 291.6,827.9 		"/>
		<path id="XMLID_397_" class="st3" d="M255.8,735.6l21.7,24.2l0.7,3.8l-23.5-24.5C254.7,739.1,255.3,736.7,255.8,735.6z"/>
		<polygon id="XMLID_398_" class="st3" points="283.9,794.1 258.4,776.9 259.4,780.8 284.5,797.4 		"/>
		<polygon id="XMLID_399_" class="st3" points="289.6,825 271.7,818 272.8,820.9 290.2,828.2 		"/>
	</g>
	<g id="XMLID_402_" class="st10">
		<path id="XMLID_416_" class="st2" d="M301.3,855.6c0,0-1.1-112.3,23.6-129.7c24.6-17.4,46.2,5.2,33,44.1
			c-13.1,38.9-41.1,89.6-41.1,89.6L301.3,855.6z"/>
		<path id="XMLID_410_" class="st3" d="M307.3,857.1L342.6,720c0,0,1.7,0.1,3,0.4l-35.7,137.4L307.3,857.1z"/>
		<path id="XMLID_408_" class="st3" d="M335,759.6l26.7-15.7c0,0,0.2,2.4,0.2,3.6l-27.7,15.2L335,759.6z"/>
		<polygon id="XMLID_407_" class="st3" points="325.3,792.9 352.9,783.6 352,786 325.3,795.3 		"/>
		<polygon id="XMLID_406_" class="st3" points="317.5,823.3 339.3,815.2 338,818 316.8,826 		"/>
		<path id="XMLID_405_" class="st3" d="M323.2,727.2l9.5,31.1l-1,3.8l-11-32.1C320.7,730,322.3,728,323.2,727.2z"/>
		<polygon id="XMLID_404_" class="st3" points="324,792.1 308.1,765.8 307.4,769.7 323.2,795.4 		"/>
		<polygon id="XMLID_403_" class="st3" points="316.2,822.5 302.9,808.6 302.7,811.8 315.4,825.7 		"/>
	</g>
	<g id="XMLID_409_" class="st10">
		<path id="XMLID_427_" class="st2" d="M313.8,857c0,0,58.9-95.6,89.1-97.2c30.1-1.6,36.3,29,4.4,55s-82.5,53.9-82.5,53.9L313.8,857
			z"/>
		<path id="XMLID_420_" class="st3" d="M318,861.4l102.9-97.3c0,0,1.4,1,2.3,1.9l-103.4,97.2L318,861.4z"/>
		<path id="XMLID_419_" class="st3" d="M393.4,793.7l31,1c0,0-1.2,2.1-1.8,3.2l-31.5-1.9L393.4,793.7z"/>
		<polygon id="XMLID_418_" class="st3" points="367.5,816.8 395.8,823.6 393.7,825.1 366.2,818.7 		"/>
		<polygon id="XMLID_417_" class="st3" points="344.7,838.2 367.4,843 364.8,844.7 342.6,840.2 		"/>
		<path id="XMLID_415_" class="st3" d="M400.7,760l-8.6,31.4l-2.8,2.7l7.8-33C397.1,761,399.5,760.2,400.7,760z"/>
		<polygon id="XMLID_414_" class="st3" points="366.8,815.3 367.4,784.6 364.6,787.6 364.3,817.7 		"/>
		<polygon id="XMLID_412_" class="st3" points="344,836.9 340.1,818.1 338.3,820.7 341.6,839.1 		"/>
	</g>
	<g id="XMLID_316_" class="st10">
		<path id="XMLID_168_" class="st2" d="M509.1,855.9h22.7c0,0,32.8-11.1,66.1-34.9l0-42.7C569.6,792.3,535.8,816.1,509.1,855.9z"/>
		<path id="XMLID_336_" class="st2" d="M500.4,855.9c0,0,87.6-99.9,93.6-178.9c0,0-80.9,67.5-109.7,178.9H500.4z"/>
		<path id="XMLID_335_" class="st2" d="M478.3,855.9c0,0,31.4-81.2,30.8-189.6c0,0-59.5,89.5-44.8,189.6H478.3z"/>
		<path id="XMLID_334_" class="st2" d="M459.2,855.9c0,0,0.9-97.5-37.9-156.8c0,0-13.8,80.4,24.1,156.8H459.2z"/>
		<path id="XMLID_333_" class="st2" d="M435.1,855.9c0,0-4.9-39.5-64.6-82.8c0,0,9.4,50.5,52.2,82.8H435.1z"/>
		<path id="XMLID_322_" class="st3" d="M494.4,855.9c0,0,66.4-116.9,79.4-143c0,0-62.6,100.5-82.7,143H494.4z"/>
		<path id="XMLID_320_" class="st3" d="M473.7,855.9c0,0,21.7-120,25.1-146.8c0,0-23.7,109.6-28.1,146.8H473.7z"/>
		<path id="XMLID_319_" class="st3" d="M454.3,855.9c0,0-21.4-105.6-29.8-140.1c0,0,23.1,122,27.4,140.1H454.3z"/>
		<path id="XMLID_318_" class="st3" d="M430.9,855.9c0,0-22.4-36.7-51.5-71.5c0,0,35.8,53.1,48.5,71.5H430.9z"/>
		<path id="XMLID_170_" class="st3" d="M521.4,855.9h2.5c0,0,40.4-27.4,74.5-53.6l0-2.8C570.5,819.5,530.6,848.3,521.4,855.9z"/>
	</g>
	<g id="XMLID_312_" class="st10">
		<path id="XMLID_302_" class="st2" d="M115.9,879c0,0,7.8-49.8,21.1-71.7l13.2,9.6l-9.6-15.2c0,0,12.2-20.2,31.1-33.3
			S202.3,753,211,741s32.9-57.5,32.9-57.5s7.2,42.1-9.2,73s-27.1,46.3-27.1,46.3L195.8,792l8.9,14.8c0,0-26.1,21.2-31,32.7
			S163.3,868,163.3,868L115.9,879z"/>
		<path id="XMLID_314_" class="st3" d="M136.1,869.3c0,0,9.3-40.1,26-62c16.8-21.9,44.6-32,58.5-56.8s19.4-41.5,19.4-41.5
			s-5.1,23.1-19.9,46s-45.5,38.7-55.9,55.2s-21.1,62.6-21.1,62.6L136.1,869.3z"/>
	</g>
	<g id="XMLID_120_" class="st10">
		<path id="XMLID_288_" class="st4" d="M587.2,656.3c-15.7,36.3-15.1,59.9-9.4,89.3c5.7,29.5,2.4,42.4-8.6,65.2
			c-11,22.7-4.4,45.5-4.4,45.5h33.1V716.3C591.5,690.7,587.2,656.3,587.2,656.3z"/>
		<path id="XMLID_162_" class="st12" d="M578.9,855.7c0,0-2.1-22.5,6.6-43.2s13.3-38,9.3-53.8s-14.8-46-11.8-65
			c0,0,1.4,31.5,11.3,55.5s-3,52.8-6.8,63.3s-6,33.9-4.9,43.1H578.9z"/>
	</g>
	<g id="XMLID_421_" class="st10">
		<path id="XMLID_430_" class="st4" d="M337.3,864.2c0,0-4.6-16,3.1-31.9s10.1-25,6.1-45.7c-4-20.7-4.5-37.2,6.6-62.6
			c0,0,5.9,47.6,13.6,58.9c7.7,11.3,9.3,44.6,5.7,51.9c-3.6,7.3,0,29.4,0,29.4H337.3z"/>
		<path id="XMLID_423_" class="st12" d="M347.2,863.8c0,0-1.5-15.7,4.6-30.3c6.1-14.5,9.3-26.6,6.5-37.7c-2.8-11-10.3-32.2-8.2-45.6
			c0,0,1,22.1,7.9,38.9c6.9,16.8-2.1,37-4.8,44.4c-2.7,7.4-4.2,23.8-3.4,30.2H347.2z"/>
	</g>
	<g id="XMLID_39_" class="st10">
		<path id="XMLID_123_" class="st8" d="M279.8,866c0,0,6.3-25.2-1.9-51.8c-8.3-26.6-15.2-30.6-8.5-55.4c6.7-24.9,3.6-46-9.3-66.1
			c-12.9-20.1-15.2-20.6-15.2-20.6s-6.6,57.5-16.1,78.5c-9.5,21-14.1,44.3-5,67.1c9.2,22.8,2.8,53.7,2.8,53.7l42.1,19.1L279.8,866z"
			/>
		<path id="XMLID_42_" class="st13" d="M244.9,672.1c0,0,12.5,36,9.3,65.5c-3.2,29.4-6.5,53.7-0.8,68.2c5.7,14.4,18.3,54.8,9,81.9
			l-5.3-2.4c0,0,9-21.7-1.6-55.3c-10.6-33.6-8.8-49.7-6.6-66.8C251.3,745.9,256,717.8,244.9,672.1z"/>
	</g>
	<path id="XMLID_161_" class="st14" d="M77.5,866.2c0,0-5.4-52.3,15.9-89.2s48.3-41.9,58.2-71.6c9.9-29.7,6.9-41.2,29.1-58.8
		c0,0-7.9,49-7.8,78.2c0.1,29.1-46.3,68.4-48,106.9c-0.9,20.9,3.6,23.9,3.6,23.9l-48.8,22.2L77.5,866.2z"/>
	<path id="XMLID_160_" class="st15" d="M171.6,666.9c0,0-7.3,26.4-15.7,55.8c-8.4,29.4-34.6,42.4-48.1,72.5
		c-13.5,30.1-12.3,59.2-7.8,73.3l5-2.3c0,0-11.1-35.6,6.9-69.3c18-33.7,37.8-45.5,45.2-67.8S171.6,666.9,171.6,666.9z"/>
	<g id="XMLID_78_" class="st10">
		<text id="XMLID_462_" transform="matrix(1 0 0 1 144.8105 273.3511)" class="st5 st6 st7">SYNOPSIS</text>
	</g>
	<g id="XMLID_12_" class="st10">
		<text id="XMLID_492_" transform="matrix(1 0 0 1 144.8101 335.8048)"><tspan x="0" y="0" class="st5 st6 st16">Lorem ipsum dolor sit amet, facilis qualisque instructior qui in.</tspan><tspan x="0" y="12.6" class="st5 st6 st16">Dico signiferumque in duo, rationibus mediocritatem ex his.</tspan><tspan x="0" y="25.2" class="st5 st6 st16">Facete antiopam efficiendi quo in. Ex sit nostro definiebas.</tspan><tspan x="0" y="37.8" class="st5 st6 st16">Ad choro denique nec, has aliquip albucius at. Quo vidit</tspan><tspan x="0" y="50.4" class="st5 st6 st16">incorrupte ad, est no reque referrentur. Mel saepe tation</tspan><tspan x="0" y="63" class="st5 st6 st16">tincidunt ei, an wisi autem laoreet sea, sea eu voluptua recteque</tspan><tspan x="0" y="75.6" class="st5 st6 st16">salutandi.</tspan><tspan x="0" y="100.7" class="st5 st6 st16">Cu numquam phaedrum vis, in nullam postea vel. Te natum</tspan><tspan x="0" y="113.3" class="st5 st6 st16">aliquando est. Ei mel error iisque. Per in decore sententiae, cu</tspan><tspan x="0" y="125.9" class="st5 st6 st16">argumentum sadipscing sea.</tspan><tspan x="0" y="151.1" class="st5 st6 st16">His eros sadipscing an. Denique commune delicatissimi qui ut, ei</tspan><tspan x="0" y="163.7" class="st5 st6 st16">audiam vidisse labores nam. Pri et soleat petentium evertitur, mel</tspan><tspan x="0" y="176.3" class="st5 st6 st16">ut putant reprimique. Cu pro case posse ocurreret, dicta dolores</tspan><tspan x="0" y="188.9" class="st5 st6 st16">eu sit, ad his feugiat corpora pericula. In quidam scaevola efficiantur est.</tspan><tspan x="0" y="214.1" class="st5 st6 st16">Sed alii necessitatibus et, ex ignota verterem perpetua his, vero graeci</tspan><tspan x="0" y="226.7" class="st5 st6 st16">recusabo has at. Appareat recteque no vix, eum te errem praesent</tspan><tspan x="0" y="239.3" class="st5 st6 st16">consetetur, modus semper minimum eam ne. Eos ut incorrupte</tspan><tspan x="0" y="251.9" class="st5 st6 st16">suscipiantur necessitatibus, ad usu probo dolorum invidunt. Et modo </tspan><tspan x="0" y="264.5" class="st5 st6 st16">appetere placerat sea.</tspan></text>
	</g>
	<path id="XMLID_293_" class="st17" d="M429.9,124.1c0,0-66,22.2-91,72.2c0,0,66-9.4,108-72.2H429.9z"/>
	<path id="XMLID_294_" class="st17" d="M453.4,124.1c0,0-65.5,74.7-70,133.7c0,0,60.5-50.4,82-133.7H453.4z"/>
	<path id="XMLID_295_" class="st17" d="M469.9,124.1c0,0-23.5,60.7-23,141.7c0,0,44.5-66.9,33.5-141.7H469.9z"/>
	<path id="XMLID_296_" class="st17" d="M484.2,124.1c0,0-0.7,72.9,28.3,117.2c0,0,10.3-60.1-18-117.2H484.2z"/>
	<path id="XMLID_297_" class="st17" d="M502.2,124.1c0,0,3.7,29.6,48.3,61.9c0,0-7-37.8-39-61.9H502.2z"/>
	<path id="XMLID_298_" class="st18" d="M435.9,124.1c0,0-51.3,34.7-76.5,57c0,0,67.5-48,78.3-57H435.9z"/>
	<path id="XMLID_88_" class="st18" d="M457.9,124.1c0,0-49.7,87.4-59.3,106.9c0,0,46.8-75.1,61.8-106.9H457.9z"/>
	<path id="XMLID_109_" class="st18" d="M473.4,124.1c0,0-16.3,89.7-18.8,109.7c0,0,17.8-81.9,21-109.7H473.4z"/>
	<path id="XMLID_163_" class="st18" d="M487.9,124.1c0,0,16,79,22.3,104.7c0,0-17.3-91.2-20.5-104.7H487.9z"/>
	<path id="XMLID_164_" class="st18" d="M505.4,124.1c0,0,16.8,27.4,38.5,53.4c0,0-26.8-39.7-36.3-53.4H505.4z"/>
	<path id="XMLID_85_" class="st19" d="M367.9,856.3c0,0,3.3-15.2,11.3-41.1c8-25.9,18.7-37.9,17.3-58.9c-1.3-21-9.3-62.5,8.7-93.7
		c0,0,8,50.1,20.7,74.7c12.7,24.7,8,54,0,69.4s-5.3,49.6-5.3,49.6H367.9z"/>
	<path id="XMLID_299_" class="st15" d="M388.1,856.3c0,0,1-33,11.3-51.7s12.5-37,10.3-53.8s-10-37.8-7.5-65.8c0,0,1.8,28.3,10,65.5
		s-11.8,50.3-15.5,71s-4.8,34.7-4.8,34.7H388.1z"/>
</g>
<g id="XMLID_34_">
	<defs>
		<rect id="XMLID_36_" x="769.7" y="122.4" width="519" height="731.8"/>
	</defs>
	<clipPath id="XMLID_365_">
		<use xlink:href="#XMLID_36_"  style="overflow:visible;"/>
	</clipPath>
	<rect id="XMLID_2_" x="769.7" y="122.4" class="st20" width="519" height="731.8"/>
	<g id="XMLID_494_" class="st21">
		
			<linearGradient id="XMLID_366_" gradientUnits="userSpaceOnUse" x1="1000.1843" y1="825.7682" x2="1017.3206" y2="829.7589" gradientTransform="matrix(0.4434 -0.8963 0.8963 0.4434 -172.2049 1376.6068)">
			<stop  offset="0" style="stop-color:#334954"/>
			<stop  offset="1" style="stop-color:#2B333A"/>
		</linearGradient>
		<path id="XMLID_507_" class="st22" d="M1061.2,860.8c0,0-79.1-1.2-90.9-18.9c-11.8-17.6,4.5-32.4,31.7-22.5
			c27.2,9.9,62.3,30.5,62.3,30.5L1061.2,860.8z"/>
		<path id="XMLID_503_" class="st3" d="M1062.4,856.6l-95.9-27.2c0,0,0.1-1.2,0.4-2.1l96.1,27.6L1062.4,856.6z"/>
		<path id="XMLID_501_" class="st3" d="M994.2,835.3l-10.6-19.1c0,0,1.7-0.1,2.6,0l10.2,19.7L994.2,835.3z"/>
		<polygon id="XMLID_500_" class="st3" points="1017.5,842.8 1011.4,823.2 1013.1,823.9 1019.1,842.8 		"/>
		<polygon id="XMLID_499_" class="st3" points="1038.7,848.8 1033.4,833.3 1035.3,834.3 1040.6,849.3 		"/>
		<path id="XMLID_498_" class="st3" d="M971.2,843.1l22.1-6.1l2.6,0.7l-22.8,7.2C973.1,844.9,971.7,843.8,971.2,843.1z"/>
		<polygon id="XMLID_497_" class="st3" points="1016.9,843.7 998.1,854.4 1000.8,855 1019.2,844.3 		"/>
		<polygon id="XMLID_495_" class="st3" points="1038.1,849.7 1028.1,858.8 1030.4,859 1040.3,850.3 		"/>
	</g>
	<g id="XMLID_474_" class="st21">
		<linearGradient id="XMLID_369_" gradientUnits="userSpaceOnUse" x1="1059.3962" y1="807.5313" x2="1076.5325" y2="811.5219">
			<stop  offset="0" style="stop-color:#334954"/>
			<stop  offset="1" style="stop-color:#2B333A"/>
		</linearGradient>
		<path id="XMLID_484_" class="st23" d="M1068.4,858.6c0,0-34-71.4-23.4-89.8c10.6-18.4,31-10.4,34.2,18.4
			c3.2,28.8,0.3,69.4,0.3,69.4L1068.4,858.6z"/>
		<path id="XMLID_481_" class="st3" d="M1072.7,857.8l-18.1-98.1c0,0,1.1-0.5,2-0.6l17.9,98.3L1072.7,857.8z"/>
		<path id="XMLID_480_" class="st3" d="M1061.5,787.3l12.4-17.9c0,0,0.8,1.5,1.2,2.3l-13.2,17.9L1061.5,787.3z"/>
		<polygon id="XMLID_479_" class="st3" points="1065.2,811.4 1080.1,797.3 1080.2,799.1 1065.8,812.9 		"/>
		<polygon id="XMLID_478_" class="st3" points="1069.2,833.1 1080.7,821.5 1080.7,823.7 1069.6,835.1 		"/>
		<path id="XMLID_477_" class="st3" d="M1044.4,770.1l15.3,17.1l0.5,2.7l-16.6-17.2C1043.6,772.6,1044,770.9,1044.4,770.1z"/>
		<polygon id="XMLID_476_" class="st3" points="1064.1,811.3 1046.1,799.2 1046.9,801.9 1064.5,813.6 		"/>
		<polygon id="XMLID_475_" class="st3" points="1068.1,833 1055.5,828.1 1056.3,830.2 1068.5,835.3 		"/>
	</g>
	<g id="XMLID_66_" class="st21">
		
			<linearGradient id="XMLID_429_" gradientUnits="userSpaceOnUse" x1="1028.4384" y1="813.4124" x2="1045.5746" y2="817.403" gradientTransform="matrix(0.9151 -0.4033 0.4033 0.9151 -239.2879 490.5776)">
			<stop  offset="0" style="stop-color:#334954"/>
			<stop  offset="1" style="stop-color:#2B333A"/>
		</linearGradient>
		<path id="XMLID_496_" class="st24" d="M1058.7,863.3c0,0-59.9-51.7-57.6-72.8c2.2-21.1,24.2-22,38.7,3
			c14.5,25.1,28.2,63.4,28.2,63.4L1058.7,863.3z"/>
		<path id="XMLID_483_" class="st3" d="M1062.3,860.8l-56.1-82.4c0,0,0.8-0.9,1.6-1.4l56,82.8L1062.3,860.8z"/>
		<path id="XMLID_473_" class="st3" d="M1023.6,800.8l4.1-21.4c0,0,1.4,1,2,1.6l-4.9,21.7L1023.6,800.8z"/>
		<polygon id="XMLID_472_" class="st3" points="1036.7,821.4 1044.6,802.5 1045.5,804.1 1037.9,822.5 		"/>
		<polygon id="XMLID_470_" class="st3" points="1049.1,839.6 1055,824.4 1055.8,826.4 1050.3,841.3 		"/>
		<path id="XMLID_469_" class="st3" d="M1001,792l20.9,9.5l1.5,2.3l-22.1-9.1C1001.3,794.6,1001,792.9,1001,792z"/>
		<polygon id="XMLID_361_" class="st3" points="1035.7,821.7 1014.3,817.9 1016.1,820.1 1037,823.7 		"/>
		<polygon id="XMLID_75_" class="st3" points="1048.1,840 1034.6,840.6 1036.2,842.2 1049.4,841.9 		"/>
	</g>
	<g id="XMLID_371_" class="st21">
		<path id="XMLID_471_" class="st2" d="M1076.4,854.6c0,0-0.7-79.1,16.6-91.3c17.3-12.3,32.5,3.7,23.3,31.1
			c-9.2,27.4-28.9,63.1-28.9,63.1L1076.4,854.6z"/>
		<path id="XMLID_468_" class="st3" d="M1080.6,855.7l24.8-96.6c0,0,1.2,0,2.1,0.3l-25.2,96.7L1080.6,855.7z"/>
		<path id="XMLID_467_" class="st3" d="M1100.1,787l18.8-11c0,0,0.1,1.7,0.1,2.6l-19.5,10.7L1100.1,787z"/>
		<polygon id="XMLID_466_" class="st3" points="1093.3,810.5 1112.7,803.9 1112.1,805.6 1093.3,812.1 		"/>
		<polygon id="XMLID_465_" class="st3" points="1087.8,831.8 1103.1,826.2 1102.2,828.1 1087.3,833.8 		"/>
		<path id="XMLID_464_" class="st3" d="M1091.8,764.2l6.7,21.9l-0.7,2.6l-7.8-22.6C1090,766.2,1091.1,764.8,1091.8,764.2z"/>
		<polygon id="XMLID_463_" class="st3" points="1092.4,809.9 1081.2,791.4 1080.7,794.1 1091.8,812.2 		"/>
		<polygon id="XMLID_452_" class="st3" points="1086.9,831.3 1077.5,821.5 1077.4,823.8 1086.3,833.5 		"/>
	</g>
	<g id="XMLID_14_" class="st21">
		<linearGradient id="XMLID_432_" gradientUnits="userSpaceOnUse" x1="1121.0378" y1="820.0313" x2="1139.3712" y2="844.0313">
			<stop  offset="0" style="stop-color:#334954"/>
			<stop  offset="1" style="stop-color:#2B333A"/>
		</linearGradient>
		<path id="XMLID_68_" class="st25" d="M1085.2,855.6c0,0,41.5-67.3,62.7-68.5s25.6,20.4,3.1,38.7c-22.4,18.3-58.1,37.9-58.1,37.9
			L1085.2,855.6z"/>
		<path id="XMLID_45_" class="st3" d="M1088.1,858.7l72.5-68.5c0,0,1,0.7,1.6,1.4l-72.8,68.4L1088.1,858.7z"/>
		<path id="XMLID_44_" class="st3" d="M1141.2,811l21.8,0.7c0,0-0.8,1.5-1.3,2.2l-22.2-1.4L1141.2,811z"/>
		<polygon id="XMLID_43_" class="st3" points="1123,827.2 1142.9,832.1 1141.5,833.1 1122.1,828.6 		"/>
		<polygon id="XMLID_41_" class="st3" points="1107,842.4 1122.9,845.8 1121.1,846.9 1105.5,843.8 		"/>
		<path id="XMLID_38_" class="st3" d="M1146.4,787.3l-6,22.1l-2,1.9l5.5-23.3C1143.8,788,1145.5,787.4,1146.4,787.3z"/>
		<polygon id="XMLID_37_" class="st3" points="1122.5,826.2 1122.9,804.6 1121,806.7 1120.8,827.9 		"/>
		<polygon id="XMLID_28_" class="st3" points="1106.4,841.4 1103.7,828.2 1102.4,830 1104.8,843 		"/>
	</g>
	<g id="XMLID_505_" class="st21">
		<path id="XMLID_518_" class="st2" d="M1098.7,852.1c0,0,68.1-40.3,87.4-31.4c19.3,8.9,13.1,30-15.2,35.7
			c-28.4,5.8-69.1,6.6-69.1,6.6L1098.7,852.1z"/>
		<path id="XMLID_514_" class="st3" d="M1099.9,856.3l96-26.9c0,0,0.6,1.1,0.8,2l-96.3,26.7L1099.9,856.3z"/>
		<path id="XMLID_512_" class="st3" d="M1169.1,838.8l19,10.7c0,0-1.4,1-2.2,1.4l-19-11.5L1169.1,838.8z"/>
		<polygon id="XMLID_511_" class="st3" points="1145.3,844.6 1160.7,858.1 1159,858.4 1143.9,845.4 		"/>
		<polygon id="XMLID_510_" class="st3" points="1124.1,850.6 1136.7,861 1134.5,861.1 1122.2,851.1 		"/>
		<path id="XMLID_509_" class="st3" d="M1184.6,820.1l-15.6,16.8l-2.6,0.7l15.7-18C1182.1,819.6,1183.8,819.8,1184.6,820.1z"/>
		<polygon id="XMLID_508_" class="st3" points="1145.4,843.5 1155.8,824.5 1153.1,825.5 1143.1,844.2 		"/>
		<polygon id="XMLID_506_" class="st3" points="1124.1,849.5 1127.9,836.5 1125.9,837.5 1121.9,850.1 		"/>
	</g>
	<g id="XMLID_325_" class="st21">
		<path id="XMLID_339_" class="st4" d="M1223.2,860c0,0-20.1-46.3-38.5-64l-10.3,12.6l5.4-17.1c0,0-16.9-16.5-38.5-24.4
			s-33.5-7.2-45-16.6c-11.5-9.4-46.4-47.4-46.4-47.4s3.6,42.5,27.3,68.3c23.7,25.8,37.9,38,37.9,38l8.7-13.4l-4.9,16.6
			c0,0,30.6,14,38.3,23.9c7.7,9.9,17.3,24.9,17.3,24.9L1223.2,860z"/>
		<path id="XMLID_328_" class="st12" d="M1201.2,855.6c0,0-19.1-36.5-40.8-53.4c-21.8-17-51.2-19.8-70.9-40.2s-29.3-35.3-29.3-35.3
			s10.8,21,30.8,39.5c20.1,18.5,53.8,26,68,39.4s36.2,55.2,36.2,55.2L1201.2,855.6z"/>
	</g>
	<g id="XMLID_332_" class="st21">
		<path id="XMLID_390_" class="st2" d="M929.7,854.3c0,0,88.3-29.7,121.7-96.6c0,0-88.3,12.6-144.5,96.6H929.7z"/>
		<path id="XMLID_387_" class="st2" d="M898.3,854.3c0,0,87.6-99.9,93.6-178.9c0,0-80.9,67.5-109.7,178.9H898.3z"/>
		<path id="XMLID_384_" class="st2" d="M876.2,854.3c0,0,31.4-81.2,30.8-189.6c0,0-59.5,89.5-44.8,189.6H876.2z"/>
		<path id="XMLID_381_" class="st2" d="M857,854.3c0,0,0.9-97.5-37.9-156.8c0,0-13.8,80.4,24.1,156.8H857z"/>
		<path id="XMLID_378_" class="st2" d="M832.9,854.3c0,0-4.9-39.5-64.6-82.8c0,0,9.4,50.5,52.2,82.8H832.9z"/>
		<path id="XMLID_375_" class="st3" d="M921.7,854.3c0,0,68.5-46.4,102.3-76.2c0,0-90.3,64.2-104.8,76.2H921.7z"/>
		<path id="XMLID_372_" class="st3" d="M892.2,854.3c0,0,66.4-116.9,79.4-143c0,0-62.6,100.5-82.7,143H892.2z"/>
		<path id="XMLID_367_" class="st3" d="M871.5,854.3c0,0,21.7-120,25.1-146.8c0,0-23.7,109.6-28.1,146.8H871.5z"/>
		<path id="XMLID_352_" class="st3" d="M852.1,854.3c0,0-21.4-105.6-29.8-140.1c0,0,23.1,122,27.4,140.1H852.1z"/>
		<path id="XMLID_338_" class="st3" d="M828.7,854.3c0,0-22.4-36.7-51.5-71.5c0,0,35.8,53.1,48.5,71.5H828.7z"/>
	</g>
	<path id="XMLID_3_" class="st26" d="M1140.4,755.4l22.3,16.2c0,0-28.4,43-37.2,43c-2.4,0,4.1-29.8,9.3-40.1l-7.4-5.8L1140.4,755.4z
		"/>
	<g id="XMLID_7_" class="st21">
		<path id="XMLID_31_" class="st27" d="M1223.7,560.3l-57,15.2c-90.1,14.9-153.4,48-170,88.2c-7.3,17.6,14.6,39.8,37.2,57
			c0.8-1,1.6-2,2.5-3c-0.8,1-1.6,2-2.5,3c-36.2,45.1-58.8,95-58.8,95l18.2,8.7c12.9-32.1,38.1-64.3,64.5-87.1
			c12.3-10.7,24.9-19.4,36.5-25.1c0,0,0,0,0,0l-29.5-24.7c-3.7,3.4-7.3,6.9-10.8,10.5c0.2-0.2,0.5-0.5,0.7-0.7
			c-9.9-12.4-14.4-24.4-7.9-34c24-36,113.3-48.7,113.3-48.7c-22.3,30.3-57.8,46.4-57.8,46.4c-13.2,6.7-25.7,15.9-37.4,26.5
			l29.5,24.7c38.5-18.7,104.9-46.3,125.4-76.8C1233.9,614.2,1228.4,579.5,1223.7,560.3z M1044.5,708.1c-0.7,0.8-1.3,1.5-2,2.3
			C1043.2,709.6,1043.8,708.8,1044.5,708.1z M1050,702.1c-0.3,0.3-0.7,0.7-1,1C1049.3,702.8,1049.6,702.5,1050,702.1z M1037.8,715.9
			c0.8-1,1.6-1.9,2.5-2.9C1039.4,714,1038.6,715,1037.8,715.9z"/>
		<path id="XMLID_60_" class="st27" d="M1075.8,748c0,0,36.2,21,46.8,25.6l13.3-13.7c-9.7-5.8-23.3-14.2-37.1-23.9
			C1090.6,739.9,1081.2,744.6,1075.8,748z"/>
	</g>
	<path id="XMLID_24_" class="st28" d="M1102.2,660.9c0,0,35.5-16,57.8-46.4c0,0-89.3,12.7-113.3,48.7c-6.4,9.6-2,21.6,7.9,34
		c3.3-3.4,6.7-6.7,10.1-9.8l-8.1-6.8L1102.2,660.9z"/>
	<path id="XMLID_26_" class="st28" d="M1142.8,752.9l-28.6-24c0,0-7,3.1-15.3,7.1c13.8,9.7,27.4,18.2,37.1,23.9L1142.8,752.9z"/>
	<g id="XMLID_40_" class="st29">
		<path id="XMLID_98_" class="st5" d="M1156.5,616.6l3-0.5c0.1,0,0.1,0,0.1,0.1c0,0.1,0,0.2-0.1,0.4c-0.1,0.2-0.3,0.3-0.5,0.3
			l-3,0.5c-0.1,0-0.1,0-0.2-0.1c0-0.1,0-0.2,0.1-0.4S1156.3,616.7,1156.5,616.6z"/>
		<path id="XMLID_108_" class="st5" d="M1149.2,618l3-0.6c0.1,0,0.1,0,0.1,0.1c0,0.1,0,0.2-0.1,0.4c-0.1,0.2-0.3,0.3-0.5,0.3l-3,0.6
			c-0.1,0-0.1,0-0.2-0.1c0-0.1,0-0.2,0.1-0.4S1149,618.1,1149.2,618z"/>
		<path id="XMLID_118_" class="st5" d="M1141.8,619.6l3-0.7c0.1,0,0.1,0,0.1,0.1c0,0.1,0,0.2-0.1,0.4c-0.1,0.2-0.3,0.3-0.4,0.3
			l-3,0.6c-0.1,0-0.1,0-0.2-0.1c0-0.1,0-0.2,0.1-0.4S1141.6,619.6,1141.8,619.6z"/>
		<path id="XMLID_124_" class="st5" d="M1134.5,621.3l3-0.7c0.1,0,0.1,0,0.1,0.1c0,0.1,0,0.2-0.1,0.4c-0.1,0.2-0.2,0.3-0.4,0.4
			l-2.9,0.7c-0.1,0-0.1,0-0.2-0.1c0-0.1,0-0.2,0.1-0.4C1134.2,621.4,1134.3,621.3,1134.5,621.3z"/>
		<path id="XMLID_126_" class="st5" d="M1127.2,623.1l2.9-0.8c0.1,0,0.1,0,0.2,0.1c0,0.1,0,0.2-0.1,0.4s-0.2,0.3-0.4,0.4l-2.9,0.7
			c-0.1,0-0.1,0-0.2-0.1c0-0.1,0-0.2,0.1-0.4C1126.9,623.2,1127,623.1,1127.2,623.1z"/>
		<path id="XMLID_128_" class="st5" d="M1120,625l2.9-0.8c0.1,0,0.1,0,0.2,0.1c0,0.1,0,0.2-0.1,0.4s-0.2,0.3-0.4,0.4l-2.9,0.8
			c-0.1,0-0.1,0-0.2-0.1c0-0.1,0-0.2,0.1-0.4C1119.6,625.2,1119.8,625.1,1120,625z"/>
		<path id="XMLID_130_" class="st5" d="M1112.8,627.1l2.9-0.9c0.1,0,0.1,0,0.2,0.1c0,0.1,0,0.2-0.1,0.4c-0.1,0.2-0.2,0.3-0.4,0.4
			l-2.9,0.9c-0.1,0-0.1,0-0.2,0c0-0.1,0-0.2,0.1-0.4S1112.6,627.1,1112.8,627.1z"/>
		<path id="XMLID_132_" class="st5" d="M1105.7,629.3l2.9-0.9c0.1,0,0.1,0,0.2,0.1c0,0.1,0,0.2-0.1,0.4s-0.2,0.3-0.4,0.4l-2.9,0.9
			c-0.1,0-0.1,0-0.2,0c0-0.1,0-0.2,0.1-0.4C1105.3,629.5,1105.5,629.3,1105.7,629.3z"/>
		<path id="XMLID_134_" class="st5" d="M1098.6,631.7l2.9-1c0.1,0,0.1,0,0.2,0.1c0,0.1,0,0.2-0.1,0.4c-0.1,0.2-0.2,0.3-0.4,0.4
			l-2.9,1c-0.1,0-0.1,0-0.2,0c0-0.1,0-0.2,0.1-0.4C1098.2,631.9,1098.4,631.7,1098.6,631.7z"/>
		<path id="XMLID_136_" class="st5" d="M1091.6,634.3l2.8-1.1c0.1,0,0.1,0,0.2,0c0,0.1,0,0.2-0.1,0.4c-0.1,0.2-0.2,0.3-0.4,0.4
			l-2.8,1.1c-0.1,0-0.1,0-0.2,0c0-0.1,0-0.2,0.1-0.4C1091.2,634.5,1091.4,634.3,1091.6,634.3z"/>
		<path id="XMLID_138_" class="st5" d="M1084.7,637.1l2.8-1.2c0.1,0,0.1,0,0.2,0c0,0.1,0,0.2,0,0.4c-0.1,0.2-0.2,0.3-0.4,0.4
			l-2.8,1.2c-0.1,0-0.1,0-0.2,0c0-0.1,0-0.2,0-0.4C1084.4,637.3,1084.5,637.2,1084.7,637.1z"/>
		<path id="XMLID_140_" class="st5" d="M1078,640.2l2.7-1.3c0.1,0,0.1,0,0.2,0c0,0.1,0,0.2,0,0.4s-0.2,0.4-0.4,0.4l-2.7,1.3
			c-0.1,0-0.1,0-0.2,0c0-0.1,0-0.2,0-0.4C1077.6,640.4,1077.8,640.3,1078,640.2z"/>
		<path id="XMLID_142_" class="st5" d="M1071.2,643.8l2.7-1.5c0.1,0,0.1,0,0.2,0c0,0.1,0,0.2,0,0.4s-0.2,0.4-0.3,0.5l-2.6,1.5
			c-0.1,0-0.1,0-0.2,0c0-0.1,0-0.2,0-0.4S1071,643.9,1071.2,643.8z"/>
		<path id="XMLID_144_" class="st5" d="M1064.7,647.9l2.5-1.7c0.1,0,0.1,0,0.2,0c0,0.1,0.1,0.2,0,0.4c0,0.2-0.1,0.4-0.3,0.5
			l-2.5,1.7c-0.1,0.1-0.1,0.1-0.2,0c-0.1-0.1-0.1-0.2,0-0.4C1064.4,648.2,1064.5,648,1064.7,647.9z"/>
		<path id="XMLID_146_" class="st5" d="M1058.6,652.6l2.4-1.9c0.1-0.1,0.1-0.1,0.2,0c0.1,0.1,0.1,0.2,0.1,0.4c0,0.2-0.1,0.4-0.2,0.5
			l-2.4,1.9c-0.1,0.1-0.1,0.1-0.2,0c-0.1-0.1-0.1-0.2-0.1-0.4C1058.4,652.9,1058.5,652.8,1058.6,652.6z"/>
		<path id="XMLID_148_" class="st5" d="M1052.9,657.9l2.1-2.2c0.1-0.1,0.1-0.1,0.2,0c0.1,0.1,0.1,0.2,0.1,0.4c0,0.2,0,0.4-0.2,0.5
			l-2.1,2.1c-0.1,0.1-0.1,0.1-0.2,0c-0.1-0.1-0.1-0.2-0.1-0.4C1052.7,658.3,1052.8,658.1,1052.9,657.9z"/>
		<path id="XMLID_150_" class="st5" d="M1048.1,664.2l1.7-2.5c0-0.1,0.1-0.1,0.2-0.1c0.1,0,0.1,0.2,0.2,0.4s0,0.4-0.1,0.6l-1.7,2.5
			c-0.1,0.1-0.1,0.1-0.2,0.1c-0.1-0.1-0.1-0.2-0.2-0.4C1047.9,664.6,1048,664.4,1048.1,664.2z"/>
		<path id="XMLID_152_" class="st5" d="M1045.2,672.1l0.6-3c0-0.1,0.1-0.1,0.1-0.1c0.1,0,0.2,0.1,0.3,0.3c0.1,0.2,0.2,0.4,0.1,0.5
			l-0.6,3c0,0.1-0.1,0.1-0.1,0.1c-0.1,0-0.2-0.1-0.3-0.3S1045.2,672.3,1045.2,672.1z"/>
		<path id="XMLID_154_" class="st5" d="M1046.3,680.5l-0.8-2.9c0-0.1,0-0.1,0.1-0.2c0.1,0,0.2,0,0.4,0.1s0.3,0.2,0.4,0.4l0.8,2.9
			c0,0.1,0,0.1,0,0.2c-0.1,0-0.2,0-0.4-0.1C1046.5,680.9,1046.4,680.7,1046.3,680.5z"/>
		<path id="XMLID_156_" class="st5" d="M1050,687.8l-1.5-2.6c0-0.1,0-0.1,0-0.2c0.1,0,0.2,0,0.4,0c0.2,0,0.4,0.1,0.5,0.3l1.5,2.6
			c0,0.1,0,0.1,0,0.2c-0.1,0-0.2,0.1-0.4,0S1050.1,687.9,1050,687.8z"/>
		<path id="XMLID_158_" class="st5" d="M1054.2,694.1l-1.7-2.5c0-0.1,0-0.1,0-0.2c0.1,0,0.2-0.1,0.4,0c0.2,0,0.4,0.1,0.5,0.3
			l1.7,2.5c0.1,0.1,0.1,0.1,0,0.2c-0.1,0.1-0.2,0.1-0.4,0S1054.3,694.3,1054.2,694.1z"/>
		<path id="XMLID_176_" class="st5" d="M1105.4,738.3l-2.5-1.7c-0.1,0-0.1-0.1,0-0.2c0-0.1,0.2-0.1,0.4-0.2s0.4,0,0.6,0.1l2.5,1.7
			c0.1,0.1,0.1,0.1,0.1,0.2c-0.1,0.1-0.2,0.1-0.4,0.2S1105.6,738.4,1105.4,738.3z"/>
		<path id="XMLID_178_" class="st5" d="M1111.6,742.6l-2.5-1.7c-0.1,0-0.1-0.1-0.1-0.2c0-0.1,0.2-0.1,0.4-0.2c0.2-0.1,0.4,0,0.6,0.1
			l2.5,1.7c0.1,0.1,0.1,0.1,0.1,0.2c-0.1,0.1-0.2,0.1-0.4,0.2C1111.9,742.7,1111.8,742.7,1111.6,742.6z"/>
		<path id="XMLID_180_" class="st5" d="M1117.8,746.8l-2.5-1.7c-0.1,0-0.1-0.1-0.1-0.2c0-0.1,0.2-0.1,0.4-0.2c0.2-0.1,0.4,0,0.6,0.1
			l2.5,1.7c0.1,0.1,0.1,0.1,0.1,0.2c-0.1,0.1-0.2,0.1-0.4,0.2S1118,746.9,1117.8,746.8z"/>
		<path id="XMLID_182_" class="st5" d="M1124.1,750.9l-2.6-1.7c-0.1,0-0.1-0.1-0.1-0.2c0-0.1,0.2-0.1,0.4-0.2c0.2-0.1,0.4,0,0.6,0.1
			l2.5,1.7c0.1,0.1,0.1,0.1,0.1,0.2c-0.1,0.1-0.2,0.1-0.4,0.2S1124.2,751,1124.1,750.9z"/>
		<path id="XMLID_184_" class="st5" d="M1130.4,754.9l-2.6-1.6c-0.1,0-0.1-0.1-0.1-0.2c0-0.1,0.2-0.1,0.4-0.2c0.2-0.1,0.4,0,0.6,0.1
			l2.6,1.6c0.1,0,0.1,0.1,0.1,0.2c0,0.1-0.2,0.2-0.4,0.2C1130.8,755.1,1130.6,755.1,1130.4,754.9z"/>
	</g>
	<g id="XMLID_19_" class="st21">
		<g id="XMLID_17_">
			<text id="XMLID_519_" transform="matrix(1 0 0 1 841.4233 291.0827)" class="st5 st6 st30">BECOME</text>
		</g>
		<g id="XMLID_22_">
			<text id="XMLID_526_" transform="matrix(1 0 0 1 841.4233 356.695)" class="st5 st6 st30">A</text>
		</g>
		<g id="XMLID_25_">
			<text id="XMLID_529_" transform="matrix(1 0 0 1 841.4243 419.0368)" class="st5 st6 st30">BETTER</text>
		</g>
		<g id="XMLID_23_">
			<text id="XMLID_530_" transform="matrix(1 0 0 1 841.4233 527.3776)" class="st4 st6 st31">YOU</text>
		</g>
	</g>
	<path id="XMLID_21_" class="st28" d="M1256.5,551.6l-32.8,8.7c4.7,19.2,10.3,53.9-4,75.1c-20.5,30.5-86.9,58-125.4,76.8
		c0,0,0,0,0,0c-11.6,5.6-24.2,14.3-36.5,25.1c-26.3,22.9-51.6,55.1-64.5,87.1l13.2,6.3c0,0,12-20.3,39.5-58.6
		c6.1-8.4,16.6-16.4,29.8-24.1c11.2-6.5,24.4-12.9,38.4-19.1c44.3-19.8,96.9-38.8,123.1-60.8
		C1281.5,631.1,1256.5,551.6,1256.5,551.6z"/>
	<path id="XMLID_8_" class="st26" d="M979.6,817.8l-2.3,5.5c0,0-34.3-3.7-37.3-2.7c-3,0.9,49.4,27,49.4,27l10.9-19.9L979.6,817.8z"
		/>
	<path id="XMLID_16_" class="st32" d="M1056.7,680.7l8.1,6.8c11.7-10.6,24.2-19.8,37.4-26.5L1056.7,680.7z"/>
	<path id="XMLID_10_" class="st26" d="M1164.7,629.6c0,0-11.4,7-12.4,10.2c-1,3.2,2.4,3.4,4.6,3.2c2.2-0.2-6,9.8-2.2,13.9
		c3.8,4.2,20.8-5.7,25.7-19L1164.7,629.6z"/>
	<path id="XMLID_13_" class="st32" d="M1056.7,680.7l8.1,6.8c11.7-10.6,24.2-19.8,37.4-26.5L1056.7,680.7z"/>
	<g id="XMLID_35_" class="st21">
		<path id="XMLID_33_" class="st4" d="M795.8,855.9c0,0-6.6-22.8,4.4-45.5c11-22.7,14.3-35.7,8.6-65.2s-6.4-53.1,9.4-89.3
			c0,0,8.4,67.9,19.4,84.1c11,16.1,13.2,63.6,8.1,74c-5.1,10.4,0,41.9,0,41.9H795.8z"/>
		<path id="XMLID_71_" class="st12" d="M809.9,855.4c0,0-2.1-22.5,6.6-43.2s13.3-38,9.3-53.8s-14.8-46-11.8-65
			c0,0,1.4,31.5,11.3,55.5c9.8,24-3,52.8-6.8,63.3c-3.9,10.5-6,33.9-4.9,43.1H809.9z"/>
	</g>
	<g id="XMLID_62_" class="st21">
		<path id="XMLID_32_" class="st8" d="M769.7,832.7c0,0,4-22.1,20-40.1s22.9-18.7,26.5-40.7c3.5-22,13.5-37.5,30.9-48.8
			c17.3-11.2,19.3-10.9,19.3-10.9s-15.3,47.7-15.3,67.6c0,20-4.7,40-20,54.6c-15.3,14.7-21.3,41.3-21.3,41.3h-40V832.7z"/>
		<path id="XMLID_27_" class="st13" d="M866.4,692.3c0,0-22.7,23.9-30.7,48.3c-8,24.3-14,44.7-23.7,54c-9.7,9.3-34,36.7-36.3,61.3h5
			c0,0,0.7-20.3,21-43c20.3-22.7,24.7-36,29-50.3C835.1,748.3,841.4,724.4,866.4,692.3z"/>
	</g>
	<path id="XMLID_70_" class="st33" d="M844.3,844.5c0,0,16.8-49.9,51.4-74.5c34.7-24.7,61.3-18.1,82.7-41
		c21.3-23,23.3-34.6,50.8-41.4c0,0-27.5,41.4-39.5,67.9c-12,26.6-70.5,43.1-88,77.3c-9.5,18.7-6.7,23.2-6.7,23.2h-53.6L844.3,844.5z
		"/>
	<g id="XMLID_9_" class="st29">
		<g id="XMLID_1097_">
			<path id="XMLID_1198_" class="st5" d="M1225.9,563.7l-0.6-3c0-0.1,0-0.1,0.1-0.1c0.1,0,0.2,0,0.4,0.1s0.3,0.3,0.3,0.4l0.6,3
				c0,0.1,0,0.1-0.1,0.2c-0.1,0-0.2,0-0.4-0.1C1226,564,1225.9,563.9,1225.9,563.7z"/>
			<path id="XMLID_1196_" class="st5" d="M1227.3,571.1l-0.6-3c0-0.1,0-0.1,0.1-0.1c0.1,0,0.2,0,0.4,0.1c0.2,0.1,0.3,0.3,0.3,0.5
				l0.6,3c0,0.1,0,0.1-0.1,0.2c-0.1,0-0.2,0-0.4-0.1C1227.4,571.4,1227.3,571.3,1227.3,571.1z"/>
			<path id="XMLID_1194_" class="st5" d="M1228.5,578.5l-0.5-3c0-0.1,0-0.1,0.1-0.1c0.1,0,0.2,0,0.4,0.1c0.2,0.1,0.3,0.3,0.3,0.5
				l0.5,3c0,0.1,0,0.1-0.1,0.2c-0.1,0-0.2,0-0.4-0.1C1228.7,578.9,1228.6,578.7,1228.5,578.5z"/>
			<path id="XMLID_1192_" class="st5" d="M1229.5,586l-0.4-3c0-0.1,0-0.1,0.1-0.1c0.1,0,0.2,0,0.4,0.2c0.2,0.1,0.3,0.3,0.3,0.5
				l0.4,3c0,0.1,0,0.1-0.1,0.2c-0.1,0-0.2,0-0.4-0.2S1229.6,586.2,1229.5,586z"/>
			<path id="XMLID_1190_" class="st5" d="M1230.2,593.5l-0.2-3c0-0.1,0-0.1,0.1-0.1c0.1,0,0.2,0.1,0.4,0.2c0.2,0.1,0.3,0.3,0.3,0.5
				l0.2,3c0,0.1,0,0.1-0.1,0.1c-0.1,0-0.2-0.1-0.4-0.2C1230.3,593.8,1230.2,593.7,1230.2,593.5z"/>
			<path id="XMLID_1188_" class="st5" d="M1230.5,601l0-3c0-0.1,0-0.1,0.1-0.1c0.1,0,0.2,0.1,0.4,0.2c0.2,0.1,0.2,0.3,0.3,0.5l0,3
				c0,0.1,0,0.1-0.1,0.1c-0.1,0-0.2-0.1-0.4-0.2C1230.6,601.4,1230.5,601.2,1230.5,601z"/>
			<path id="XMLID_1186_" class="st5" d="M1230,608.5l0.3-3c0-0.1,0-0.1,0.1-0.1c0.1,0,0.2,0.1,0.4,0.3c0.1,0.2,0.2,0.3,0.2,0.5
				l-0.3,3c0,0.1,0,0.1-0.1,0.1c-0.1,0-0.2-0.1-0.4-0.2C1230,608.9,1230,608.7,1230,608.5z"/>
			<path id="XMLID_1184_" class="st5" d="M1228.5,616l0.6-3c0-0.1,0.1-0.1,0.1-0.1c0.1,0,0.2,0.1,0.3,0.3c0.1,0.2,0.2,0.4,0.1,0.5
				l-0.6,3c0,0.1-0.1,0.1-0.1,0.1c-0.1,0-0.2-0.1-0.3-0.3C1228.5,616.4,1228.4,616.2,1228.5,616z"/>
			<path id="XMLID_1182_" class="st5" d="M1227,623.4l0.7-3c0-0.1,0.1-0.1,0.1-0.1c0.1,0,0.2,0.1,0.3,0.3c0.1,0.2,0.2,0.4,0.1,0.6
				l-0.7,3c0,0.1-0.1,0.1-0.1,0.1c-0.1,0-0.2-0.1-0.3-0.3C1227,623.8,1227,623.6,1227,623.4z"/>
			<path id="XMLID_1180_" class="st5" d="M1224.4,630.5l1.2-2.8c0-0.1,0.1-0.1,0.1-0.1c0.1,0,0.2,0.1,0.3,0.3c0.1,0.2,0.1,0.4,0,0.6
				l-1.2,2.8c0,0.1-0.1,0.1-0.1,0.1c-0.1,0-0.2-0.2-0.3-0.3S1224.3,630.7,1224.4,630.5z"/>
			<path id="XMLID_1178_" class="st5" d="M1220.5,636.9l1.7-2.5c0-0.1,0.1-0.1,0.2,0c0.1,0,0.1,0.2,0.2,0.4c0.1,0.2,0,0.4-0.1,0.6
				l-1.7,2.5c-0.1,0.1-0.1,0.1-0.2,0.1c-0.1-0.1-0.1-0.2-0.2-0.4C1220.3,637.2,1220.4,637,1220.5,636.9z"/>
			<path id="XMLID_1176_" class="st5" d="M1215.6,642.7l2-2.3c0.1-0.1,0.1-0.1,0.2,0c0.1,0.1,0.1,0.2,0.1,0.4c0,0.2,0,0.4-0.2,0.5
				l-2,2.2c-0.1,0.1-0.1,0.1-0.2,0c-0.1-0.1-0.1-0.2-0.1-0.4C1215.4,643,1215.5,642.8,1215.6,642.7z"/>
			<path id="XMLID_1174_" class="st5" d="M1210.2,647.9l2.2-2.1c0.1-0.1,0.1-0.1,0.2,0c0.1,0.1,0.1,0.2,0.1,0.4s-0.1,0.4-0.2,0.5
				l-2.2,2.1c-0.1,0.1-0.1,0.1-0.2,0c-0.1-0.1-0.1-0.2-0.1-0.4C1210,648.2,1210.1,648,1210.2,647.9z"/>
			<path id="XMLID_1172_" class="st5" d="M1204.5,652.8l2.3-2c0.1-0.1,0.1-0.1,0.2,0c0.1,0.1,0.1,0.2,0.1,0.4c0,0.2-0.1,0.4-0.2,0.5
				l-2.3,1.9c-0.1,0.1-0.1,0.1-0.2,0c-0.1-0.1-0.1-0.2-0.1-0.4C1204.3,653.1,1204.4,653,1204.5,652.8z"/>
			<path id="XMLID_1170_" class="st5" d="M1198.6,657.5l2.4-1.9c0.1-0.1,0.1-0.1,0.2,0c0.1,0.1,0.1,0.2,0.1,0.4
				c0,0.2-0.1,0.4-0.3,0.5l-2.4,1.8c-0.1,0.1-0.1,0.1-0.2,0c-0.1-0.1-0.1-0.2-0.1-0.4C1198.3,657.8,1198.4,657.6,1198.6,657.5z"/>
			<path id="XMLID_1168_" class="st5" d="M1192.5,662l2.5-1.8c0.1-0.1,0.1,0,0.2,0c0.1,0.1,0.1,0.2,0,0.4c0,0.2-0.1,0.4-0.3,0.5
				l-2.5,1.8c-0.1,0.1-0.1,0.1-0.2,0c-0.1-0.1-0.1-0.2-0.1-0.4S1192.3,662.1,1192.5,662z"/>
			<path id="XMLID_1166_" class="st5" d="M1186.3,666.3l2.5-1.7c0.1,0,0.1,0,0.2,0c0,0.1,0.1,0.2,0,0.4c0,0.2-0.1,0.4-0.3,0.5
				l-2.5,1.7c-0.1,0.1-0.1,0.1-0.2,0c-0.1-0.1-0.1-0.2,0-0.4C1186.1,666.6,1186.2,666.4,1186.3,666.3z"/>
			<path id="XMLID_1164_" class="st5" d="M1180.1,670.5l2.5-1.7c0.1,0,0.1,0,0.2,0c0,0.1,0.1,0.2,0,0.4c0,0.2-0.1,0.4-0.3,0.5
				l-2.5,1.7c-0.1,0.1-0.1,0.1-0.2,0c-0.1-0.1-0.1-0.2,0-0.4C1179.8,670.8,1179.9,670.6,1180.1,670.5z"/>
			<path id="XMLID_1162_" class="st5" d="M1173.7,674.6l2.6-1.6c0.1,0,0.1,0,0.2,0c0,0.1,0.1,0.2,0,0.4s-0.1,0.4-0.3,0.5l-2.6,1.6
				c-0.1,0-0.1,0-0.2,0c0-0.1-0.1-0.2,0-0.4S1173.6,674.7,1173.7,674.6z"/>
			<path id="XMLID_1160_" class="st5" d="M1167.3,678.5l2.6-1.6c0.1,0,0.1,0,0.2,0c0,0.1,0,0.2,0,0.4s-0.1,0.4-0.3,0.5l-2.6,1.5
				c-0.1,0-0.1,0-0.2,0c0-0.1-0.1-0.2,0-0.4C1167,678.7,1167.1,678.6,1167.3,678.5z"/>
			<path id="XMLID_1158_" class="st5" d="M1160.7,682.2l2.6-1.5c0.1,0,0.1,0,0.2,0c0,0.1,0,0.2,0,0.4c0,0.2-0.2,0.4-0.3,0.5
				l-2.6,1.5c-0.1,0-0.1,0-0.2,0c0-0.1,0-0.2,0-0.4C1160.4,682.4,1160.5,682.3,1160.7,682.2z"/>
			<path id="XMLID_1156_" class="st5" d="M1154.1,685.7l2.7-1.4c0.1,0,0.1,0,0.2,0c0,0.1,0,0.2,0,0.4c0,0.2-0.2,0.4-0.3,0.5
				l-2.7,1.4c-0.1,0-0.1,0-0.2,0c0-0.1,0-0.2,0-0.4S1153.9,685.8,1154.1,685.7z"/>
			<path id="XMLID_1154_" class="st5" d="M1147.3,689.1l2.7-1.4c0.1,0,0.1,0,0.2,0c0,0.1,0,0.2,0,0.4c-0.1,0.2-0.2,0.4-0.3,0.4
				l-2.7,1.3c-0.1,0-0.1,0-0.2,0c0-0.1,0-0.2,0-0.4S1147.1,689.2,1147.3,689.1z"/>
			<path id="XMLID_1152_" class="st5" d="M1140.5,692.3l2.8-1.3c0.1,0,0.1,0,0.2,0c0,0.1,0,0.2,0,0.4c-0.1,0.2-0.2,0.4-0.4,0.4
				l-2.7,1.3c-0.1,0-0.1,0-0.2,0c0-0.1,0-0.2,0-0.4C1140.2,692.6,1140.3,692.4,1140.5,692.3z"/>
			<path id="XMLID_1150_" class="st5" d="M1133.6,695.4l2.8-1.2c0.1,0,0.1,0,0.2,0c0,0.1,0,0.2,0,0.4s-0.2,0.3-0.4,0.4l-2.8,1.2
				c-0.1,0-0.1,0-0.2,0c0-0.1,0-0.2,0-0.4C1133.3,695.7,1133.4,695.5,1133.6,695.4z"/>
			<path id="XMLID_1148_" class="st5" d="M1126.7,698.5l2.8-1.2c0.1,0,0.1,0,0.2,0c0,0.1,0,0.2,0,0.4c-0.1,0.2-0.2,0.3-0.4,0.4
				l-2.8,1.2c-0.1,0-0.1,0-0.2,0c0-0.1,0-0.2,0-0.4C1126.4,698.7,1126.5,698.5,1126.7,698.5z"/>
			<path id="XMLID_1146_" class="st5" d="M1119.8,701.4l2.8-1.2c0.1,0,0.1,0,0.2,0c0,0.1,0,0.2,0,0.4c-0.1,0.2-0.2,0.3-0.4,0.4
				l-2.8,1.2c-0.1,0-0.1,0-0.2,0c0-0.1,0-0.2,0-0.4C1119.5,701.7,1119.6,701.5,1119.8,701.4z"/>
			<path id="XMLID_1144_" class="st5" d="M1112.9,704.5l2.8-1.2c0.1,0,0.1,0,0.2,0c0,0.1,0,0.2,0,0.4c-0.1,0.2-0.2,0.3-0.4,0.4
				l-2.8,1.2c-0.1,0-0.1,0-0.2,0c0-0.1,0-0.2,0-0.4C1112.6,704.7,1112.7,704.5,1112.9,704.5z"/>
			<path id="XMLID_1142_" class="st5" d="M1106.1,707.6l2.8-1.3c0.1,0,0.1,0,0.2,0c0,0.1,0,0.2,0,0.4c-0.1,0.2-0.2,0.4-0.4,0.4
				l-2.7,1.3c-0.1,0-0.1,0-0.2,0c0-0.1,0-0.2,0-0.4C1105.8,707.8,1105.9,707.7,1106.1,707.6z"/>
			<path id="XMLID_1140_" class="st5" d="M1099.4,710.9l2.7-1.4c0.1,0,0.1,0,0.2,0c0,0.1,0,0.2,0,0.4c-0.1,0.2-0.2,0.4-0.3,0.4
				l-2.7,1.4c-0.1,0-0.1,0-0.2,0c0-0.1,0-0.2,0-0.4S1099.2,710.9,1099.4,710.9z"/>
			<path id="XMLID_1138_" class="st5" d="M1092.8,714.3l2.7-1.5c0.1,0,0.1,0,0.2,0c0,0.1,0,0.2,0,0.4c0,0.2-0.2,0.4-0.3,0.5
				l-2.7,1.4c-0.1,0-0.1,0-0.2,0c0-0.1,0-0.2,0-0.4C1092.5,714.6,1092.6,714.4,1092.8,714.3z"/>
			<path id="XMLID_1136_" class="st5" d="M1086.3,718.1l2.6-1.6c0.1,0,0.1,0,0.2,0c0,0.1,0,0.2,0,0.4s-0.1,0.4-0.3,0.5l-2.6,1.5
				c-0.1,0-0.1,0-0.2,0c0-0.1-0.1-0.2,0-0.4S1086.2,718.2,1086.3,718.1z"/>
			<path id="XMLID_1134_" class="st5" d="M1080.1,722l2.5-1.7c0.1,0,0.1,0,0.2,0c0,0.1,0.1,0.2,0,0.4s-0.1,0.4-0.3,0.5l-2.5,1.6
				c-0.1,0.1-0.1,0.1-0.2,0c-0.1-0.1-0.1-0.2,0-0.4C1079.8,722.3,1079.9,722.1,1080.1,722z"/>
			<path id="XMLID_1132_" class="st5" d="M1073.9,726.2l2.5-1.8c0.1,0,0.1,0,0.2,0c0,0.1,0.1,0.2,0,0.4s-0.1,0.4-0.3,0.5l-2.5,1.7
				c-0.1,0.1-0.1,0.1-0.2,0c-0.1-0.1-0.1-0.2,0-0.4C1073.7,726.5,1073.8,726.3,1073.9,726.2z"/>
			<path id="XMLID_1130_" class="st5" d="M1068,730.6l2.4-1.8c0.1-0.1,0.1-0.1,0.2,0c0.1,0.1,0.1,0.2,0.1,0.4c0,0.2-0.1,0.4-0.3,0.5
				l-2.4,1.8c-0.1,0.1-0.1,0.1-0.2,0c-0.1-0.1-0.1-0.2-0.1-0.4S1067.8,730.8,1068,730.6z"/>
			<path id="XMLID_1128_" class="st5" d="M1062.1,735.3l2.4-1.9c0.1-0.1,0.1-0.1,0.2,0c0.1,0.1,0.1,0.2,0.1,0.4
				c0,0.2-0.1,0.4-0.2,0.5l-2.4,1.9c-0.1,0.1-0.1,0.1-0.2,0c-0.1-0.1-0.1-0.2-0.1-0.4C1061.9,735.6,1061.9,735.4,1062.1,735.3z"/>
			<path id="XMLID_1126_" class="st5" d="M1056.4,740.2l2.3-2c0.1-0.1,0.1-0.1,0.2,0c0.1,0.1,0.1,0.2,0.1,0.4c0,0.2-0.1,0.4-0.2,0.5
				l-2.3,2c-0.1,0.1-0.1,0.1-0.2,0c-0.1-0.1-0.1-0.2-0.1-0.4C1056.2,740.5,1056.3,740.3,1056.4,740.2z"/>
			<path id="XMLID_1124_" class="st5" d="M1050.9,745.2l2.2-2.1c0.1-0.1,0.1-0.1,0.2,0c0.1,0.1,0.1,0.2,0.1,0.4
				c0,0.2-0.1,0.4-0.2,0.5l-2.2,2.1c-0.1,0.1-0.1,0.1-0.2,0c-0.1-0.1-0.1-0.2-0.1-0.4C1050.7,745.5,1050.7,745.3,1050.9,745.2z"/>
			<path id="XMLID_1122_" class="st5" d="M1045.5,750.4l2.2-2.1c0.1-0.1,0.1-0.1,0.2,0c0.1,0.1,0.1,0.2,0.1,0.4s0,0.4-0.2,0.5
				l-2.2,2.1c-0.1,0.1-0.1,0.1-0.2,0c-0.1-0.1-0.1-0.2-0.1-0.4C1045.3,750.7,1045.4,750.5,1045.5,750.4z"/>
			<path id="XMLID_1120_" class="st5" d="M1040.3,755.7l2.1-2.2c0.1-0.1,0.1-0.1,0.2,0c0.1,0.1,0.1,0.2,0.1,0.4s0,0.4-0.2,0.5
				l-2.1,2.2c-0.1,0.1-0.1,0.1-0.2,0c-0.1-0.1-0.1-0.2-0.1-0.4C1040.1,756,1040.2,755.9,1040.3,755.7z"/>
			<path id="XMLID_1118_" class="st5" d="M1035.3,761.2l2-2.3c0.1-0.1,0.1-0.1,0.2,0c0.1,0.1,0.1,0.2,0.1,0.4c0,0.2,0,0.4-0.2,0.5
				l-2,2.3c-0.1,0.1-0.1,0.1-0.2,0c-0.1-0.1-0.1-0.2-0.1-0.4C1035.1,761.6,1035.1,761.4,1035.3,761.2z"/>
			<path id="XMLID_1116_" class="st5" d="M1030.4,766.9l2-2.3c0.1-0.1,0.1-0.1,0.2,0c0.1,0.1,0.1,0.2,0.2,0.4c0,0.2,0,0.4-0.1,0.5
				l-2,2.3c-0.1,0.1-0.1,0.1-0.2,0c-0.1-0.1-0.1-0.2-0.2-0.4S1030.3,767,1030.4,766.9z"/>
			<path id="XMLID_1114_" class="st5" d="M1025.7,772.7l1.9-2.4c0.1-0.1,0.1-0.1,0.2,0c0.1,0.1,0.1,0.2,0.2,0.4c0,0.2,0,0.4-0.1,0.6
				l-1.9,2.4c-0.1,0.1-0.1,0.1-0.2,0.1c-0.1-0.1-0.1-0.2-0.2-0.4C1025.6,773,1025.6,772.8,1025.7,772.7z"/>
			<path id="XMLID_1112_" class="st5" d="M1021.2,778.6l1.8-2.4c0.1-0.1,0.1-0.1,0.2,0c0.1,0.1,0.1,0.2,0.2,0.4c0,0.2,0,0.4-0.1,0.6
				l-1.8,2.4c-0.1,0.1-0.1,0.1-0.2,0.1c-0.1-0.1-0.1-0.2-0.2-0.4S1021.1,778.8,1021.2,778.6z"/>
			<path id="XMLID_1110_" class="st5" d="M1016.9,784.7l1.7-2.5c0-0.1,0.1-0.1,0.2,0c0.1,0,0.1,0.2,0.2,0.4c0.1,0.2,0,0.4-0.1,0.6
				l-1.7,2.5c-0.1,0.1-0.1,0.1-0.2,0.1c-0.1-0.1-0.1-0.2-0.2-0.4C1016.7,785,1016.8,784.8,1016.9,784.7z"/>
			<path id="XMLID_1108_" class="st5" d="M1012.7,790.9l1.7-2.5c0-0.1,0.1-0.1,0.2-0.1c0.1,0,0.1,0.2,0.2,0.4c0.1,0.2,0,0.4-0.1,0.6
				l-1.7,2.5c-0.1,0.1-0.1,0.1-0.2,0.1c-0.1-0.1-0.1-0.2-0.2-0.4S1012.6,791,1012.7,790.9z"/>
			<path id="XMLID_1106_" class="st5" d="M1008.8,797.2l1.6-2.6c0-0.1,0.1-0.1,0.2-0.1c0.1,0,0.1,0.2,0.2,0.4c0.1,0.2,0,0.4-0.1,0.6
				l-1.6,2.6c0,0.1-0.1,0.1-0.2,0.1c-0.1,0-0.2-0.2-0.2-0.4C1008.6,797.6,1008.7,797.4,1008.8,797.2z"/>
			<path id="XMLID_1104_" class="st5" d="M1005,803.6l1.5-2.6c0-0.1,0.1-0.1,0.2-0.1c0.1,0,0.1,0.2,0.2,0.4c0.1,0.2,0.1,0.4,0,0.6
				l-1.5,2.6c0,0.1-0.1,0.1-0.1,0.1c-0.1,0-0.2-0.2-0.2-0.4S1004.9,803.8,1005,803.6z"/>
			<path id="XMLID_1102_" class="st5" d="M1001.5,810.2l1.4-2.7c0-0.1,0.1-0.1,0.1-0.1c0.1,0,0.2,0.2,0.2,0.4c0.1,0.2,0.1,0.4,0,0.6
				l-1.4,2.7c0,0.1-0.1,0.1-0.1,0.1c-0.1,0-0.2-0.2-0.2-0.4C1001.4,810.6,1001.4,810.4,1001.5,810.2z"/>
			<path id="XMLID_1100_" class="st5" d="M998.1,816.9l1.3-2.7c0-0.1,0.1-0.1,0.1-0.1c0.1,0,0.2,0.2,0.2,0.4s0.1,0.4,0,0.6l-1.3,2.7
				c0,0.1-0.1,0.1-0.1,0.1c-0.1,0-0.2-0.2-0.3-0.4C998,817.2,998,817,998.1,816.9z"/>
			<path id="XMLID_1098_" class="st5" d="M995.1,823.6l1.2-2.8c0-0.1,0.1-0.1,0.1-0.1c0.1,0,0.2,0.1,0.3,0.3c0.1,0.2,0.1,0.4,0,0.6
				l-1.2,2.8c0,0.1-0.1,0.1-0.1,0.1c-0.1,0-0.2-0.2-0.3-0.3C995,824,995,823.8,995.1,823.6z"/>
		</g>
	</g>
	<path id="XMLID_51_" class="st26" d="M1012.5,702.1c0,0-17.6,21.1-37.4,44.3c-19.9,23.3-49.1,24.3-73.9,46s-35.8,48.8-37.5,63.5
		h5.5c0,0,4.6-37,35-60.3c30.4-23.2,53.3-25.8,69.3-43S1012.5,702.1,1012.5,702.1z"/>
	<path id="XMLID_54_" class="st34" d="M1247.1,855.9c0,0-12.7-12.9-9.3-38.1c3.3-25.2,5.5-34.2-8.9-43.7
		c-14.4-9.5-37.1-20.7-36.4-38.1c0.7-17.4,16.8-21.5,36.4-7.1c19.6,14.4,31.3,27.4,38.2,42.8c11.2,24.7,0,64.2,21.7,84.2H1247.1z"/>
	<path id="XMLID_11_" class="st26" d="M1010.3,419c0,0-15.5-8.3-13.7-12.3s6.9-0.5,6.9-0.5s-10.7-14-5.3-20.6
		c5.4-6.6,21.1,8.2,25.2,21.3L1010.3,419z"/>
	<path id="XMLID_6_" class="st33" d="M1150.5,370.3c0,0-40.4,17.1-55.1,37.1c-14.7,19.9-20.7,67.3-20.7,67.3l-46.6-72.1l-21.5,19.9
		c0,0,41.7,88.1,56.1,101.4c14.3,13.3,36.7-3.2,42-12.2c5.3-9,9.6-24.2,9.6-24.2s9.6,32,27.6,41.4s21.5,47.1,21.5,47.1l34.3-7.5
		l-37.7,58.4l28.2,14.9l68.5-90.3l2.4-146.2c0.3-16-9.6-30.5-24.6-35.9c-11.3-4.1-27.6-6-50.9-2.3L1150.5,370.3z"/>
	<path id="XMLID_5_" class="st26" d="M1112.5,297c0,0-8.5,58.4,34.5,51c0,0,4.8,11.2,3.2,25.5c0,0-3.1,18.7,6.1,24.3
		c9.2,5.6,25.1-11.6,27.1-30.7c0,0-2-57-5.6-70.1S1125.7,270.3,1112.5,297z"/>
	<path id="XMLID_74_" class="st35" d="M1223.2,257.9c7.5-21-5-45.5,9.5-67.5c13.5-20.5,43.2-27.6,40.2-52.4
		c-16.6-7.5-46.9-9.9-65.8,8.6c-23.4,23-23.4,50.5-39.9,61.6c-16.5,11.2-49.9-3.7-68.5,22.3c-18.6,26-18.4,71.1,13.4,70.6
		c0,0,19-31.3,65.8-4.2C1177.9,297,1215.7,278.9,1223.2,257.9z"/>
	<path id="XMLID_76_" class="st36" d="M1282,144c-2-2.1-5.2-4.2-9.1-6c3,24.8-26.6,31.9-40.2,52.4c-14.5,22-2,46.5-9.5,67.5
		s-45.3,39.1-45.3,39.1s14.2,3.3,34-4.8c28.7-11.7,39.3-47.8,37.7-62.2c-1.6-14.3-7.2-30.8,14-42
		C1284.7,176.9,1292.7,155.2,1282,144z"/>
	<polygon id="XMLID_20_" class="st37" points="1197.5,568.6 1221.2,530.4 1215.2,440.9 	"/>
	<path id="XMLID_18_" class="st38" d="M1147.1,348c0,0,7.4-4.4,14.4-13.1c0,0-3.9,30.5-11.4,40.2
		C1150,375.1,1152.3,363.3,1147.1,348z"/>
	<path id="XMLID_101_" class="st39" d="M1266.5,855.9c0,0-10-15-8.3-34.8s0.5-38.8-11-51s-31.8-32-41.5-36.8"/>
	<path id="XMLID_83_" class="st34" d="M1233.4,855.9c0.9-0.8-4.9-4.8-8.7-17.5s-3.5-39.8-14.3-48s-18.1,3.5-15.3,19
		c2.8,15.5,9.1,40.3,13.6,46.5H1233.4z"/>
	<path id="XMLID_84_" class="st39" d="M1204.4,796.1c0,0,2.8,22.2,7.7,36.8c4.8,14.7,7.8,23,7.8,23"/>
</g>
</svg>
