<?xml version="1.0" encoding="utf-8"?>
<!-- Generator: Adobe Illustrator 19.0.0, SVG Export Plug-In . SVG Version: 6.00 Build 0)  -->
<svg version="1.1" id="Layer_1" xmlns="http://www.w3.org/2000/svg" xmlns:xlink="http://www.w3.org/1999/xlink" x="0px" y="0px"
	 width="1400px" height="980px" viewBox="0 0 1400 980" style="enable-background:new 0 0 1400 980;" xml:space="preserve">
<style type="text/css">
	.st0{fill:#F7DCCF;}
	.st1{opacity:0.3;fill:#B4AEA8;}
	.st2{fill:#CE324A;}
	.st3{fill:#C0304D;}
	.st4{fill:#EC7589;}
	.st5{fill:#FBFDFD;}
	.st6{fill:#070807;}
	.st7{fill:#58595B;}
	.st8{fill:#F15951;}
	.st9{fill:#4A3B3C;}
	.st10{fill:#F9ED32;}
	.st11{fill:#F8ECA4;}
	.st12{fill:#F7941E;}
	.st13{fill:#D1D3D4;}
	.st14{fill:#E3E3E3;}
	.st15{fill:#DA3926;}
	.st16{fill:#F2C333;}
	.st17{fill:#E5B631;}
	.st18{fill:#E6E7E8;}
	.st19{fill:#CA2C2D;}
	.st20{fill:#0D9F5F;}
	.st21{fill:#0D9956;}
	.st22{fill:#979C9C;}
	.st23{fill:#A7A9AC;}
	.st24{fill:#8D5139;}
	.st25{fill:#262626;}
	.st26{opacity:0.1;fill:#59595A;}
	.st27{fill:#FFFFFF;}
	.st28{font-family:'OpenSans-Light';}
	.st29{font-size:37.4317px;}
	.st30{letter-spacing:3;}
	.st31{fill:#1B1B1C;}
	.st32{fill:#3F3233;}
	.st33{fill:#352A2C;}
	.st34{fill:#FBB040;}
	.st35{fill:#EDA23D;}
</style>
<g id="XMLID_13194_">
	<g id="XMLID_4103_">
		<rect id="XMLID_735_" class="st0" width="1400" height="980"/>
	</g>
	<g id="XMLID_851_">
		<path id="XMLID_822_" class="st1" d="M1118,827.7H888.7c-2.1-5.1-7.1-8.7-12.9-8.7H462.2c-5.8,0-10.9,3.6-12.9,8.7H310.5
			c-7.7,0-14,6.3-14,14v3.8c0,7.7,6.3,14,14,14h191.7c5.8,0,10.9-3.6,12.9-8.7h242.7c2.1,5.1,7.1,8.7,12.9,8.7l347.2,0
			c7.7,0,14-6.3,14-14v-3.8C1132,834,1125.8,827.7,1118,827.7z"/>
		<g id="XMLID_284_">
			<path id="XMLID_452_" class="st2" d="M723.5,218.1c-17,0-33.9,0-50.9,0c-38.1,0-71.5-14.2-95.7-37.1c-0.2,0-0.5,0-0.7,0
				c-7,88.4-26.8,176.2-52.6,263.2c-14.7,48.4-5,95.6,26.5,133.8c31.1,37.7,84,66.3,148,66.1c0,0,0,0,0,0
				c63.9,0.2,116.8-28.4,148-66.1c31.5-38.2,41.2-85.4,26.5-133.8C846.7,357.2,827,269.4,820,181c-0.2,0-0.5,0-0.7,0
				C795.1,203.9,761.6,218.1,723.5,218.1z"/>
			<path id="XMLID_451_" class="st3" d="M772.1,265.8c-39.5,0-71.7,30.8-74,69.7c-2.3-38.9-34.5-69.7-74-69.7
				c-41,0-74.2,33.2-74.2,74.2c0,41,33.2,74.2,74.2,74.2c39.5,0,71.7-30.8,74-69.7c2.3,38.9,34.5,69.7,74,69.7
				c41,0,74.2-33.2,74.2-74.2C846.3,299,813.1,265.8,772.1,265.8z"/>
			<circle id="XMLID_450_" class="st4" cx="621.4" cy="331.1" r="74.2"/>
			<circle id="XMLID_449_" class="st4" cx="774.8" cy="331.1" r="74.2"/>
			<circle id="XMLID_447_" class="st5" cx="774.8" cy="331.1" r="60"/>
			<circle id="XMLID_446_" class="st6" cx="760.2" cy="351.4" r="25.2"/>
			<circle id="XMLID_445_" class="st7" cx="760.2" cy="341.6" r="7.5"/>
			<circle id="XMLID_444_" class="st5" cx="620.7" cy="331.1" r="60"/>
			<circle id="XMLID_443_" class="st6" cx="635.6" cy="351.1" r="25.2"/>
			<circle id="XMLID_442_" class="st7" cx="635.6" cy="341.6" r="7.5"/>
			<path id="XMLID_289_" class="st3" d="M786.9,474.4c6.4-28,14.4-48.7,23.3-63.1c-12.6,13.5-24.2,38.1-32.8,75.7
				c-11.3,49.5-1.9,110.5,3.9,139.5c3.7-1.7,7.4-3.5,11-5.4C786.9,596.6,774.5,528.6,786.9,474.4z"/>
			<path id="XMLID_485_" class="st3" d="M618.8,487.1c-8.6-37.5-20.2-62.1-32.7-75.6c8.8,14.4,16.9,35.1,23.2,63
				c12.3,54.2-0.1,122.1-5.4,146.8c0.7,0.4,1.4,0.7,2.1,1.1c0.6,0.3,1.3,0.6,1.9,1c1,0.5,2,1,3,1.5c0.7,0.3,1.4,0.6,2.1,1
				c0.6,0.3,1.3,0.6,1.9,0.9C620.7,597.6,630,536.6,618.8,487.1z"/>
			<g id="XMLID_422_">
				<path id="XMLID_438_" class="st3" d="M753.6,455.9c8.1,0,16.1-3,24.1-9.1c1-0.7,1.1-2.1,0.4-3c-0.7-1-2.1-1.1-3-0.4
					c-14.5,11-28.6,11-43.1,0c-1-0.7-2.3-0.5-3,0.4c-0.7,1-0.5,2.3,0.4,3C737.4,452.9,745.5,455.9,753.6,455.9z"/>
				<path id="XMLID_437_" class="st3" d="M696.5,455.9c8.1,0,16.1-3,24.1-9.1c1-0.7,1.1-2.1,0.4-3c-0.7-1-2.1-1.1-3-0.4
					c-14.5,11-28.6,11-43.1,0c-1-0.7-2.3-0.5-3,0.4c-0.7,1-0.5,2.3,0.4,3C680.4,452.9,688.4,455.9,696.5,455.9z"/>
				<path id="XMLID_436_" class="st3" d="M639.4,455.9c8.1,0,16.1-3,24.1-9.1c1-0.7,1.1-2.1,0.4-3c-0.7-1-2.1-1.1-3-0.4
					c-14.5,11-28.6,11-43.1,0c-1-0.7-2.3-0.5-3,0.4c-0.7,1-0.5,2.3,0.4,3C623.3,452.9,631.4,455.9,639.4,455.9z"/>
				<path id="XMLID_435_" class="st3" d="M757.5,482.8c-0.7,1-0.5,2.3,0.4,3c8,6.1,16.1,9.1,24.1,9.1c8.1,0,16.1-3,24.1-9.1
					c1-0.7,1.1-2.1,0.4-3c-0.7-1-2.1-1.1-3-0.4c-14.5,11-28.6,11-43.1,0C759.6,481.7,758.2,481.8,757.5,482.8z"/>
				<path id="XMLID_434_" class="st3" d="M700.5,482.8c-0.7,1-0.5,2.3,0.4,3c8,6.1,16.1,9.1,24.1,9.1c8.1,0,16.1-3,24.1-9.1
					c1-0.7,1.1-2.1,0.4-3c-0.7-1-2.1-1.1-3-0.4c-14.5,11-28.6,11-43.1,0C702.5,481.7,701.2,481.8,700.5,482.8z"/>
				<path id="XMLID_433_" class="st3" d="M643.4,482.8c-0.7,1-0.5,2.3,0.4,3c8,6.1,16.1,9.1,24.1,9.1c8.1,0,16.1-3,24.1-9.1
					c1-0.7,1.1-2.1,0.4-3c-0.7-1-2.1-1.1-3-0.4c-14.5,11-28.6,11-43.1,0C645.5,481.7,644.1,481.8,643.4,482.8z"/>
				<path id="XMLID_432_" class="st3" d="M610.9,494.9c8.1,0,16.1-3,24.1-9.1c1-0.7,1.1-2.1,0.4-3c-0.7-1-2.1-1.1-3-0.4
					c-14.5,11-28.6,11-43.1,0c-1-0.7-2.3-0.5-3,0.4c-0.7,1-0.5,2.3,0.4,3C594.8,491.9,602.8,494.9,610.9,494.9z"/>
				<path id="XMLID_431_" class="st3" d="M779.9,521.8c-0.7-1-2.1-1.1-3-0.4c-14.5,11-28.6,11-43.1,0c-1-0.7-2.3-0.5-3,0.4
					c-0.7,1-0.5,2.3,0.4,3c8,6.1,16.1,9.1,24.1,9.1c8.1,0,16.1-3,24.1-9.1C780.5,524.1,780.6,522.7,779.9,521.8z"/>
				<path id="XMLID_429_" class="st3" d="M722.9,521.8c-0.7-1-2.1-1.1-3-0.4c-14.5,11-28.6,11-43.1,0c-1-0.7-2.3-0.5-3,0.4
					c-0.7,1-0.5,2.3,0.4,3c8,6.1,16.1,9.1,24.1,9.1c8.1,0,16.1-3,24.1-9.1C723.4,524.1,723.6,522.7,722.9,521.8z"/>
				<path id="XMLID_427_" class="st3" d="M665.8,521.8c-0.7-1-2.1-1.1-3-0.4c-14.5,11-28.6,11-43.1,0c-1-0.7-2.3-0.5-3,0.4
					c-0.7,1-0.5,2.3,0.4,3c8,6.1,16.1,9.1,24.1,9.1c8.1,0,16.1-3,24.1-9.1C666.3,524.1,666.5,522.7,665.8,521.8z"/>
				<path id="XMLID_426_" class="st3" d="M803.6,560.4c-14.5,11-28.6,11-43.1,0c-1-0.7-2.3-0.5-3,0.4c-0.7,1-0.5,2.3,0.4,3
					c8,6.1,16.1,9.1,24.1,9.1c8.1,0,16.1-3,24.1-9.1c1-0.7,1.1-2.1,0.4-3C805.9,559.8,804.6,559.7,803.6,560.4z"/>
				<path id="XMLID_425_" class="st3" d="M746.6,560.4c-14.5,11-28.6,11-43.1,0c-1-0.7-2.3-0.5-3,0.4c-0.7,1-0.5,2.3,0.4,3
					c8,6.1,16.1,9.1,24.1,9.1c8.1,0,16.1-3,24.1-9.1c1-0.7,1.1-2.1,0.4-3C748.9,559.8,747.5,559.7,746.6,560.4z"/>
				<path id="XMLID_424_" class="st3" d="M689.5,560.4c-14.5,11-28.6,11-43.1,0c-1-0.7-2.3-0.5-3,0.4c-0.7,1-0.5,2.3,0.4,3
					c8,6.1,16.1,9.1,24.1,9.1c8.1,0,16.1-3,24.1-9.1c1-0.7,1.1-2.1,0.4-3C691.8,559.8,690.5,559.7,689.5,560.4z"/>
				<path id="XMLID_423_" class="st3" d="M632.4,560.4c-14.5,11-28.6,11-43.1,0c-1-0.7-2.3-0.5-3,0.4c-0.7,1-0.5,2.3,0.4,3
					c8,6.1,16.1,9.1,24.1,9.1c8.1,0,16.1-3,24.1-9.1c1-0.7,1.1-2.1,0.4-3C634.8,559.8,633.4,559.7,632.4,560.4z"/>
			</g>
			<path id="XMLID_287_" class="st8" d="M869,493.1c15.4-67.4,3.8-101.4-18.9-106.6c-22.7-5.2-47.9,20.5-63.2,87.9
				c-15.4,67.4,7.6,156.3,7.6,156.3S853.7,560.6,869,493.1z"/>
			<path id="XMLID_286_" class="st8" d="M527.1,493.1c-15.4-67.4-3.8-101.4,18.9-106.6c22.7-5.2,47.9,20.5,63.2,87.9
				c15.4,67.4-7.6,156.3-7.6,156.3S542.5,560.6,527.1,493.1z"/>
			<path id="XMLID_494_" class="st9" d="M877.7,310.6c-2.2-3.7-6.9-5-10.7-3l-15.4,8.1c-1.1-5.4-2.7-10.8-5-16
				c-12.5-28.5-40.6-46.9-71.7-46.9c-10.8,0-21.3,2.2-31.3,6.6c-19.2,8.4-33.9,23.7-41.5,43.1c-1.7,4.4-3,8.8-3.9,13.3
				c-7.1-35.9-38.8-63-76.7-63c-37.9,0-69.6,27.1-76.7,62.9l-15.4-8.1c-3.8-2-8.5-0.7-10.7,3c-1.2,1.9-1.5,4.2-0.9,6.4
				c0.6,2.1,2.1,4,4.1,5l2.1,1.1c0.3,0.2,0.6,0.2,0.9,0.2c0.7,0,1.5-0.4,1.8-1.1c0.5-1,0.1-2.2-0.9-2.7l-2.1-1.1
				c-1-0.5-1.7-1.4-2-2.5c-0.3-1.1-0.2-2.2,0.4-3.2c1.1-1.8,3.4-2.5,5.3-1.5l16.6,8.7c-0.5,3.6-0.8,7.3-0.8,11.1
				c0,43.1,35.1,78.2,78.2,78.2c37.9,0,69.6-27.1,76.7-63c1.1,5.4,2.8,10.8,5,16c12.5,28.5,40.6,46.9,71.7,46.9c0,0,0,0,0,0
				c10.8,0,21.3-2.2,31.3-6.6c32.9-14.4,51-48.8,46.1-82.8l16.6-8.7c1.9-1,4.2-0.3,5.3,1.5c0.6,1,0.7,2.1,0.4,3.2
				c-0.3,1.1-1,2-2,2.5l-2.1,1.1c-1,0.5-1.4,1.7-0.9,2.7c0.4,0.7,1.1,1.1,1.8,1.1c0.3,0,0.6-0.1,0.9-0.2l2.1-1.1c2-1,3.5-2.8,4.1-5
				C879.1,314.9,878.8,312.5,877.7,310.6z M621.4,405.2c-41,0-74.2-33.2-74.2-74.2c0-41,33.2-74.2,74.2-74.2
				c41,0,74.2,33.2,74.2,74.2C695.5,372,662.3,405.2,621.4,405.2z M804.5,399c-37.5,16.4-81.2-0.8-97.6-38.3
				c-16.4-37.5,0.8-81.2,38.3-97.6c37.5-16.4,81.2,0.8,97.6,38.3C859.2,338.9,842,382.6,804.5,399z"/>
			<path id="XMLID_441_" class="st10" d="M719.7,386.6l-21.6,40.9l-21.6-40.9c-1.2-2.3-1.6-5.1-0.9-7.6c5.1-18.3,39.9-18.3,45,0
				C721.3,381.5,720.9,384.3,719.7,386.6z"/>
			<path id="XMLID_439_" class="st11" d="M708.7,382.7c-3,1-18.4,1-21.3,0c-3.4-0.8-0.5-11.7,10.7-11.9
				C709.3,371,712.1,381.9,708.7,382.7z"/>
		</g>
		<path id="XMLID_740_" class="st12" d="M871.3,720.6v-80.2h11.3v-11.3H564.9c-28.4,0-51.5,23-51.5,51.5v0c0,28.4,23,51.5,51.5,51.5
			h317.7v-11.3H871.3z"/>
		<path id="XMLID_491_" class="st13" d="M564.9,720.6c-22.1,0-40.1-18-40.1-40.1c0-22.1,18-40.1,40.1-40.1h306.4v80.2H564.9z"/>
		<path id="XMLID_495_" class="st14" d="M525.7,688.8c3.8,18.1,20,31.8,39.2,31.8h306.4V657H564.9
			C545.7,657,529.5,670.7,525.7,688.8z"/>
		<path id="XMLID_496_" class="st15" d="M835,823.5v-80.2h11.3V732H528.6c-28.4,0-51.5,23-51.5,51.5v0c0,28.4,23,51.5,51.5,51.5
			h317.7v-11.3H835z"/>
		<path id="XMLID_492_" class="st13" d="M528.6,823.5c-22.1,0-40.1-18-40.1-40.1c0-22.1,18-40.1,40.1-40.1H835v80.2H528.6z"/>
		<path id="XMLID_486_" class="st14" d="M489.3,791.7c3.8,18.1,20,31.8,39.2,31.8H835V760H528.6C509.3,760,493.2,773.6,489.3,791.7z
			"/>
		<g id="XMLID_663_">
			<g id="XMLID_498_">
				<rect id="XMLID_321_" x="398.6" y="569.3" class="st16" width="15.1" height="77.4"/>
				<rect id="XMLID_404_" x="406.1" y="569.3" class="st17" width="7.6" height="77.4"/>
				<rect id="XMLID_401_" x="398.6" y="566.3" class="st18" width="15.1" height="3"/>
				<rect id="XMLID_403_" x="398.6" y="563.2" class="st13" width="15.1" height="3"/>
				<path id="XMLID_402_" class="st19" d="M410.7,552.2h-9.2c-1.6,0-2.9,1.3-2.9,2.9v8.1h15.1v-8.1
					C413.7,553.5,412.4,552.2,410.7,552.2z"/>
			</g>
			<g id="XMLID_410_">
				
					<rect id="XMLID_457_" x="374.7" y="569.2" transform="matrix(0.9986 -5.363268e-002 5.363268e-002 0.9986 -32.3568 21.3858)" class="st20" width="15.1" height="88.8"/>
				
					<rect id="XMLID_456_" x="382.3" y="569" transform="matrix(0.9986 -5.364056e-002 5.364056e-002 0.9986 -32.3452 21.5913)" class="st21" width="7.6" height="88.8"/>
				
					<rect id="XMLID_455_" x="371.7" y="566.2" transform="matrix(0.9986 -5.362667e-002 5.362667e-002 0.9986 -29.9005 21.1715)" class="st13" width="15.6" height="3"/>
				<path id="XMLID_454_" class="st18" d="M368.7,567l1.9,34.8c0.1,1.7,1.5,2.9,3.2,2.9l0,0l-2.1-38.7l-2.1,0.1
					C369,566,368.6,566.5,368.7,567z"/>
				<path id="XMLID_453_" class="st20" d="M379,552.2L379,552.2c-3.8,0.2-6.7,3.5-6.5,7.3l0.4,7.2l13.8-0.7l-0.4-7.2
					C386,554.9,382.8,552,379,552.2z"/>
				<path id="XMLID_461_" class="st21" d="M386.6,565.9l-0.4-7.2c-0.2-3.8-3.5-6.7-7.3-6.5l0.8,14.1L386.6,565.9z"/>
			</g>
			<g id="XMLID_406_">
				<polygon id="XMLID_501_" class="st16" points="424.7,598.1 421.2,646.7 436.4,646.7 439.8,599.2 				"/>
				<polyline id="XMLID_499_" class="st16" points="421.2,646.7 436.4,646.7 439.8,599.2 				"/>
				<polygon id="XMLID_502_" class="st17" points="432.2,598.7 428.8,646.7 436.4,646.7 439.4,604.4 439.8,599.2 				"/>
				
					<rect id="XMLID_409_" x="424.8" y="595.6" transform="matrix(0.9975 7.080732e-002 -7.080732e-002 0.9975 43.3674 -29.1146)" class="st18" width="15.1" height="3"/>
				
					<rect id="XMLID_408_" x="425" y="592.6" transform="matrix(0.9975 7.080785e-002 -7.080785e-002 0.9975 43.1547 -29.1376)" class="st13" width="15.1" height="3"/>
				<path id="XMLID_407_" class="st19" d="M438.1,581.9l-9.2-0.7c-1.6-0.1-3,1.1-3.1,2.7l-0.6,8.1l15.1,1.1l0.6-8.1
					C440.9,583.4,439.7,582,438.1,581.9z"/>
			</g>
			<path id="XMLID_285_" class="st22" d="M332.1,646.7h148.6l-12.3,179.9c-0.7,10.9-10.7,19.4-22.7,19.4h-78.6
				c-12,0-22-8.5-22.7-19.4L332.1,646.7z"/>
			<rect id="XMLID_405_" x="373.8" y="646.7" class="st23" width="25.9" height="199.3"/>
		</g>
		<rect id="XMLID_660_" x="786.2" y="599.9" class="st24" width="316.5" height="241.4"/>
		<rect id="XMLID_662_" x="803.2" y="617" class="st25" width="282.4" height="207.4"/>
		<rect id="XMLID_661_" x="772.1" y="629.1" class="st26" width="14.1" height="205.8"/>
		<text id="XMLID_50_" transform="matrix(1 0 0 1 894.1045 686.5679)"><tspan x="0" y="0" class="st27 st28 st29 st30">back</tspan><tspan x="25.5" y="44.9" class="st27 st28 st29 st30">to</tspan><tspan x="-19.6" y="89.8" class="st27 st28 st29 st30">school</tspan></text>
		<rect id="XMLID_2_" x="803.2" y="617" class="st31" width="282.4" height="17"/>
		<g id="XMLID_794_">
			<path id="XMLID_825_" class="st32" d="M698.1,203.5l-70.7-21.1V219c0,32.4,145.3,32.4,145.3,0v-37.8L698.1,203.5z"/>
		</g>
		<polygon id="XMLID_821_" class="st9" points="698.1,120.5 698.1,120.5 553.2,163.8 698.1,207.2 698.1,207.2 843,163.8 		"/>
		<polygon id="XMLID_826_" class="st33" points="698.1,215.8 772.7,193.5 772.7,184.9 698.1,207.2 627.3,186 627.3,194.7 		"/>
		<g id="XMLID_836_">
			<path id="XMLID_852_" class="st34" d="M777,214.8c-0.6,0-1-0.4-1-1v-29.5l-78.2-19.5c-0.5-0.1-0.9-0.7-0.7-1.2
				c0.1-0.5,0.7-0.9,1.2-0.7l78.9,19.7c0.4,0.1,0.8,0.5,0.8,1v30.3C778,214.4,777.6,214.8,777,214.8z"/>
		</g>
		<circle id="XMLID_850_" class="st16" cx="777" cy="205.8" r="3"/>
		<path id="XMLID_853_" class="st34" d="M779.4,207.6c-0.5,0.8-1.4,1.2-2.4,1.2s-1.9-0.5-2.4-1.2c-2.4,1.9-3.4,4.5-3.1,7.9
			c0,2.5,11.1,2.5,11.1,0C782.8,212.1,781.9,209.4,779.4,207.6z"/>
		<path id="XMLID_855_" class="st35" d="M779.5,207.7c0,0-0.1-0.1-0.1-0.1c-0.5,0.8-1.4,1.2-2.4,1.2s-1.9-0.5-2.4-1.2
			c-0.1,0.1-0.2,0.2-0.4,0.3c0.5,0.9,1.5,1.5,2.6,1.5C778,209.5,779.1,208.7,779.5,207.7z"/>
		<path id="XMLID_856_" class="st35" d="M777,202.8c0.4,0,0.7,0.1,1,0.2v-0.4c-0.3-0.1-0.6-0.2-1-0.2c-0.4,0-0.7,0.1-1,0.2v0.4
			C776.3,202.9,776.7,202.8,777,202.8z"/>
		<path id="XMLID_858_" class="st32" d="M697.8,164.8c-0.1,0-0.2-0.1-0.3-0.1c0.1,0.4,0.3,0.7,0.7,0.8l75.9,19l1-0.3L697.8,164.8z"
			/>
	</g>
</g>
</svg>
