<?xml version="1.0" encoding="utf-8"?>
<!-- Generator: Adobe Illustrator 22.1.0, SVG Export Plug-In . SVG Version: 6.00 Build 0)  -->
<svg version="1.1" id="Layer_1" xmlns="http://www.w3.org/2000/svg" xmlns:xlink="http://www.w3.org/1999/xlink" x="0px" y="0px"
	 width="2000px" height="2000px" viewBox="0 0 2000 2000" style="enable-background:new 0 0 2000 2000;" xml:space="preserve">
<style type="text/css">
	.st0{fill:#FFFFFF;}
	.st1{fill:#FFEBED;}
	.st2{fill:#FCC5D4;}
	.st3{fill:#E5A5C6;}
	.st4{fill:#75AAB2;}
	.st5{fill:#F9D4DA;}
	.st6{fill:#A4D7D0;}
	.st7{fill:#F490AD;}
	.st8{fill:#EA6C96;}
	.st9{fill:#6F549B;}
	.st10{fill:#563C79;}
	.st11{fill:#FFFFFD;}
	.st12{fill:#FFD3C6;}
	.st13{fill:#EFB6C9;}
	.st14{fill:url(#SVGID_1_);}
	.st15{fill:url(#SVGID_2_);}
	.st16{fill:url(#SVGID_3_);}
	.st17{fill:url(#SVGID_4_);}
	.st18{fill:url(#SVGID_5_);}
	.st19{fill:#BC69AD;}
	.st20{fill:url(#SVGID_6_);}
	.st21{fill:#A4508E;}
</style>
<g>
	<rect class="st0" width="2000" height="2000"/>
	<g>
		<path class="st1" d="M1853.3,978.1c-12.2-37-28.1-72.7-43.3-108.6c-20.7-49.3-40.5-99.6-48.9-152.6c-2.6-24-2.5-47.9,0.2-71.9
			c8.7-56.4,26.4-110.9,33.8-167.6c5.9-44.8,2.4-92.9-14.6-135c-10.3-25.4-22.9-48.3-42-68.3c-19-20-43.4-34.4-69.6-42.8
			c-58.6-18.8-120,0.4-174.7,22.2c-27.9,11.1-55.6,22.3-84.5,30.7c-27.3,8-55.2,13.9-83.4,18.1c-51.4,6.3-103.3,6.3-154.7,0
			c-62.5-9.4-121.8-29.2-180-53.4c-64.5-27.6-127.9-58.3-194.7-80.1c-71.7-23.4-146.8-34.8-221.8-24.3
			c-60.7,8.4-119.1,35.8-164.4,77c-21.9,19.9-41.2,44.6-53.9,71.3c-16.3,34.3-24.2,70-26.4,107.8c-4.1,68.6,12.6,136.9,5.5,205.3
			c-2.7,16-6.9,31.6-12.7,46.8c-11.1,24.3-25.7,46.7-41.8,68c-22.9,28.9-47.9,56-70.9,84.8c-30.2,37.6-55.6,76.8-73,122
			c-16.6,43.1-21.3,91.9-9.4,136.8c10.8,40.8,35.3,76.7,64.7,106.3c29.5,29.8,64.3,53.7,97.6,79c21.3,16.9,41.6,35.2,58.8,56.3
			c7,9.6,13.2,19.8,18.3,30.5c2.6,7.1,4.6,14.3,6.1,21.6c0.5,6.3,0.5,12.7,0,19c-1.8,9.4-4.6,18.6-8,27.6
			c-12.2,26.3-28.5,50.4-42.9,75.6c-18.9,33.2-33.2,68-35.9,106.4c-3.2,46.5,16.9,89.9,45.2,125.4c25,31.3,60.2,54.5,96.5,70.7
			c74.5,33.1,155.3,52.7,235.9,63.7c82.1,11.2,164.6,14.1,247.1,6c14.5-1.4,29-3.1,43.4-5.1c107.2-14.6,215.6-18,323.4-8.9
			c52.9,4.5,105.8,9,158.7,13.5c89.3,7.6,182.6,19.3,265.3-24c35-18.3,67.8-48.1,84.8-84.2c15.7-33.5,22.4-70,18.3-106.9
			c-4.3-38.5-14.9-74.7-27-111.4c-10.2-30.8-20.9-61.8-26.1-93.9c-1.2-11.5-1.4-23-0.5-34.6c1.4-7.6,3.4-15.1,6.1-22.4
			c4.7-9.5,10.3-18.5,16.6-27.1c19.5-24.2,41.3-46.2,59.5-71.5c19.5-27.1,32.9-59.8,39.1-92.5
			C1885.8,1114.7,1875.1,1044.1,1853.3,978.1z"/>
		<g>
			<path class="st2" d="M1416.9,1438.3c-5.8-16-17.4-26.7-30.6-36.7c-2.5-1.9-5-3.7-7.5-5.6c-1.3-0.9-2.5-1.9-3.8-2.8
				c3.5,2.6-1.5-1.3-2.2-1.9c-2.3-2-4.6-4.1-6.7-6.4c-1.1-1.2-2.9-3.8-1-1c-1.1-1.6-2.2-3.2-3.1-4.9c-0.7-1.3-1.4-2.6-2-4
				c-0.1-0.1-0.1-0.2-0.2-0.3c-0.1-0.3-0.2-0.7-0.3-0.9c-1.1-3.3-2.1-6.6-2.9-10c-1.5-6.5-2.5-13-3.5-19.6
				c-2.1-13.8-4.5-27.5-11.3-39.9c-7.9-14.4-21.8-24.8-37.7-28.9c-15-4-30.7-3-46.1-2.2c-7.4,0.4-14.7,0.7-22.1,0.2
				c-1.2-0.1-2.5-0.2-3.7-0.3c1.2,0.1-1.5-0.2-2.8-0.5c-3.6-0.7-7.1-1.7-10.6-2.9c-1.1-0.4-2.1-0.8-3.2-1.2c0.1,0-1.9-0.9-2.8-1.3
				c-3.3-1.6-6.5-3.5-9.5-5.5c-1-0.7-2-1.3-2.9-2c0.6,0.4-1.6-1.2-2.3-1.9c-2.8-2.4-5.4-5-7.9-7.7c-1.1-1.2-2.1-2.4-3.1-3.6
				c0,0.1,0.1,0.1,0.1,0.2c0-0.1-0.1-0.1-0.1-0.2c0,0,0,0,0-0.1c-0.2-0.3-0.6-0.8-0.8-1.1c-0.1-0.1-0.2-0.2-0.2-0.3
				c-2.1-3-4-6.1-5.7-9.4c-0.7-1.4-1.4-2.9-2.1-4.3c1.5,3.1-0.1-0.3-0.6-1.6c-1.3-3.5-2.3-7.1-3.1-10.8c-0.4-1.8-0.7-3.7-1-5.5
				c0-0.2-0.4-3.7-0.4-4.2c-0.5-4.8-0.8-9.7-1.3-14.5c-0.9-9-2-18.2-5.2-26.7c-6.3-16.8-17.7-31.7-35.6-37c-19-5.6-38.9,2.5-54,13.9
				c-3.8,2.9-7.5,5.8-11.2,8.9c-1.6,1.3-3.2,2.7-4.8,4c-0.6,0.5-1.2,1-1.8,1.5c0,0-1.1,0.9-1.8,1.5c-0.5,0.4-1.3,1-1.5,1.2
				c-0.6,0.5-1.3,0.9-1.9,1.4c-1.7,1.2-3.4,2.3-5.2,3.4c-1.5,0.9-3.2,1.6-4.7,2.6c-0.1,0.1-0.2,0.1-0.3,0.2
				c-0.8,0.3-1.7,0.6-2.6,0.9c-1.7,0.5-3.4,0.9-5.1,1.2c3.8-0.8-1.7-0.1-2.8-0.1c-0.4,0-0.8-0.1-1.3-0.1c0,0,0,0,0,0
				c-1.7-0.5-3.4-0.8-5.1-1.4c-1.7-0.6-4.2-2-1.3-0.4c-1.6-0.9-3.2-1.6-4.8-2.4c-3-1.7-5.9-3.5-8.8-5.4
				c-12.3-8.1-24.9-17.2-39.7-19.9c-36.7-6.5-68.2,17.8-88.1,46.5c-8.8,12.7-15.6,26.7-23.3,40c-3.9,6.7-8.1,13-12.4,19.3
				c0,0.1-0.1,0.1-0.1,0.2c-0.5,0.6-0.9,1.1-1.4,1.7c-1.3,1.6-2.6,3.1-4,4.6c-2.6,2.8-5.3,5.4-8.2,7.9c-0.2,0.2-1,0.8-1.5,1.2
				c-0.3,0.2-0.6,0.4-0.6,0.4c-1.7,1.2-3.5,2.4-5.3,3.5c-3.4,2.1-6.8,4-10.3,5.8c-7.1,3.6-14.5,6.8-21.8,10c-13.6,5.9-27,12-38.9,21
				c-46,34.7-67.9,94.5-57.9,150.9c1.5,8.2,3.8,16.2,6.8,24c-2.5,3.9-3.4,8.7-2,13.5c9.3,31.3,37.7,52.6,68.6,59.9
				c37.6,9,75.9-1.5,112.7-9.1c18.3-3.8,36.6-7.2,55.1-10.1c9.2-1.5,18.4-2.9,27.7-4.1c1.1-0.1,2.2-0.3,3.2-0.4
				c0.3,0,0.8-0.1,1.4-0.2c2.2-0.3,4.3-0.6,6.5-0.8c4.6-0.6,9.3-1.1,13.9-1.7c37.1-4.2,74.4-6.8,111.7-7.8s74.7-0.2,111.9,2.1
				c18.6,1.2,37.2,2.8,55.8,4.8c17.5,1.9,35.1,4.6,52.8,4.8c34.5,0.3,70.6-11.9,87.2-44.4
				C1419.2,1471.1,1422.5,1453.8,1416.9,1438.3z"/>
			<path class="st2" d="M1187.1,1246.8c-1-1.5-1.1-1.5-0.9-1.2C1186.5,1246,1186.8,1246.3,1187.1,1246.8
				C1187.1,1246.7,1187.1,1246.8,1187.1,1246.8z"/>
			<path class="st2" d="M1300.6,1311.3c-0.4-0.2-0.9-0.4-1.3-0.7c0,0-0.1,0-0.1,0C1300.4,1311.2,1300.7,1311.3,1300.6,1311.3z"/>
		</g>
		<path class="st3" d="M757.3,1399.1c-1.9-27.2,18.4-49.5,41.1-61.4c26.2-13.7,56.2-17.1,84.1-26.3c12.8-4.2,25.4-9.5,36.6-17.1
			c10.5-7.1,18.9-16.1,26.1-26.5c12.1-17.4,24.2-42.5,49.5-38.6c12.9,2,24.6,8.5,37.5,10.3c11.7,1.7,22.2-1.7,32-8.1
			c12.9-8.5,35.3-33.7,50.6-15.4c6.7,8,8.2,19.7,10.7,29.5c2.9,11.2,7.1,21.5,15,30.1c16.6,18.3,42.2,25.5,65.6,29.5
			c26.5,4.6,56.2,7,77.2,25.6c19.4,17.2,27.9,42.9,33.8,67.3c1.5,6.2,2.8,12.3,4.1,18.5c1.3,6.1,10.6,3.5,9.3-2.6
			c-5.4-25.6-11.5-52.6-26.7-74.4c-7.5-10.8-17.2-20-28.8-26.3c-12.5-6.8-26.5-10.5-40.5-13.1c-26.1-4.9-54-6.8-76.7-22.2
			c-10.3-7-17.6-16.6-21.2-28.4c-3.3-10.8-4.9-22.2-9.8-32.5c-4.5-9.3-12.9-16.2-23.4-17.1c-10.4-0.9-19.8,5-27.8,10.9
			c-8.7,6.5-17.3,14.7-27.9,18.1c-13,4.2-26.2-2.1-38.4-6c-12.2-3.9-24.8-5.7-36.7-0.2c-10.3,4.7-17.7,13.8-24.1,22.8
			c-7,9.9-12.9,20.7-21.3,29.5c-9.9,10.3-22.5,17.5-35.6,22.8c-28.1,11.4-58.7,14.6-86.7,26.3c-24.8,10.3-48.3,29-55.5,56.1
			c-1.6,6.2-2.2,12.6-1.8,18.9C748,1405.3,757.7,1405.4,757.3,1399.1L757.3,1399.1z"/>
		<path class="st2" d="M662.7,1176c-10.5-3-22.1-2.4-32.1,1.9c1-11.3,1.6-22.7,1.9-34.1c10.9,5.5,22.5,9.5,34.9,6.8
			c12.9-2.8,23.9-14.7,22.5-28.5c-1.5-14.1-15.4-23-28.9-22c-11.6,0.9-20.8,7.4-28.6,15.3c-0.4-12.4-1.3-24.9-2.8-37.2
			c1.1,0.7,2.5,1.1,3.8,1c13.7-1.3,28.5-3.4,37.5-15c8-10.2,8.3-25-2.3-33.6c-9.9-8-24-7.4-34.1,0c-4.5,3.3-8,7.2-10.8,11.6
			c-2.3-10.9-5-21.6-8.1-32.2c11.8-2.4,24-6.2,30.8-16.9c6.1-9.5,4.7-23.3-4.9-30c-10.9-7.6-24.5-1.1-31.4,8.7
			c-1.9,2.7-3.5,5.5-4.8,8.6c-2.7-6.7-5.5-13.3-8.6-19.8c8.7-4,15.9-11,20-19.8c4.9-10.5,6.3-25.1-1.7-34.6c-4.3-5-11.2-7.8-17.7-6
			c-6.1,1.7-10.3,6.7-13.6,11.8c-2.7,4.2-4.8,8.7-6.4,13.4c-2.6-4.1-5.3-8.1-8.1-12.1c3.2-5.5,5.5-11.4,6.6-17.8
			c1.4-8.9,2-21-6-27.1c-3.9-2.9-9.1-3.4-13.4-1c-4.4,2.5-6.5,7.2-8.2,11.8c-0.7,1.9-1.3,3.8-1.9,5.7c-3.5-3.8-7.1-7.5-10.8-11.1
			c7.1-14.1,6.7-32-2.7-45.2c-3.4-4.8-10-5.1-13.4,0c-6.7,10.1-9.9,22-9.6,33.9c-1.8-0.2-3.7-0.2-5.6,0.1
			c-12.6-0.1-26.5,4.5-30.9,16.3c-2.8,7.5,0.5,15.5,7.3,19.6c7.3,4.4,15.8,3,23.5,0.5c7.1-2.3,14.4-5.3,18.3-11.9
			c1.1,0,2.3-0.3,3.4-1c3.4,3.4,6.7,6.9,9.9,10.4c-7.1-1.2-14.4-1-21,2.8c-9,5.1-14.6,16-10.4,26c3.6,8.6,13.1,13.3,22.1,13.2
			c11.3-0.1,20.5-7.8,28.5-15c0.1-0.1,0.1-0.1,0.2-0.2c0.8,0.4,1.6,0.7,2.4,0.8c2.8,4,5.4,8,8,12.1c-6.4,0.8-12.4,3.5-17,8.5
			c-7,7.4-9.3,18.9-3.9,27.9c5.1,8.5,15.4,11.9,24.6,8.2c6.3-2.6,10.5-7.3,13.6-12.9c3.6,7.7,7,15.5,10,23.5
			c-17.1,1-34.4,13.7-34,31.9c0.3,13,12.1,19.6,24,16.4c8.1-2.2,15.3-7,21.4-12.8c2,7.6,3.7,15.3,5.2,22.9c-7-0.9-14.2,0.6-20.2,4.7
			c-8.8,6.1-14.8,17.5-12.7,28.4c2.1,10.6,12.7,15.7,22.8,14.1c6.4-1,11.4-4.5,15.6-9.1c0.8,8.5,1.4,16.9,1.7,25.4
			c-18.1-7.6-40.2-1.1-50,17.7c-2.1,4.1-0.5,10.4,4.6,11.4c15.7,2.9,31.1,1.3,45.7-4.6c-0.1,10.8-0.6,21.7-1.4,32.5
			c-7.4-5.7-15.6-10.1-25.3-10.9c-11.8-0.9-23.9,5.7-27.8,17.2c-3.6,10.6,2.6,23.4,13.5,26.5c6.5,1.8,13-0.7,19.1-2.8
			c5.4-1.9,10.8-3.8,16.2-5.6c0.6,0.4,1.2,0.8,1.8,1.2c-0.9,7.4-1.9,14.8-3.1,22.1c-6.3,40.2-16.1,79.8-27.5,118.9
			c-2.8,9.6,12.1,13.7,14.9,4.1c13-44.4,24-89.8,30-135.7c1.4,0.9,2.7,1.8,4.1,2.7c7.4,4.9,14.8,10.4,22.6,14.5
			c7,3.7,15.3,5.9,23.1,3.1c7.8-2.8,12.9-9.7,13.3-18C691.6,1191.8,676.5,1179.9,662.7,1176z"/>
		<path class="st2" d="M1239.1,1217.4c-2.1,5.9-0.6,12.1,4,16.4c4.6,4.2,10.9,5.2,16.9,4.6c6.7-0.6,13.3-2.2,19.9-3.4
			c1.2-0.2,2.4-0.4,3.6-0.7c-9.3,33.6-15,68.2-19.1,102.7c-0.9,7.4,10.7,9,11.5,1.5c3.6-30.4,8.4-60.7,15.8-90.3
			c1.4-5.4,2.8-10.8,4.4-16.2c0.5-0.1,1.1-0.2,1.6-0.3c3.2,2.9,6.4,5.8,9.5,8.6c3.6,3.3,7.3,6.9,12.4,7.6c8.5,1.1,16.5-6,17.2-14.4
			c0.7-9.1-5.8-17.2-14.2-20.1c-6.9-2.4-13.9-1.7-20.7,0.1c2.6-7.7,5.5-15.4,8.5-22.9c8.3,8.4,18.5,14,30.2,16.6
			c3.9,0.8,6.8-3.1,6.5-6.5c-1.3-15.9-14.6-26.9-29.4-27c2.7-5.8,5.6-11.5,8.7-17.1c1.5,4.4,4,8.3,8.1,10.9c6.5,4,15.3,3.6,19.9-3.1
			c4.7-6.9,3.9-16.5-0.4-23.3c-2.9-4.6-7.5-7.8-12.6-9.2c3.3-4.9,6.7-9.7,10.4-14.3c2.5,5.8,6.1,11.2,11,15.2
			c7.3,5.7,17.4,4.6,21.4-4.3c5.6-12.5-2.6-26.4-14.2-32.1c4.4-4.6,9-9.1,13.8-13.3c0.5,4.7,2,9.2,5.6,12.9
			c5.3,5.3,13.3,5.9,19.4,1.5c6.4-4.6,8.1-13.3,5.5-20.4c-1.7-4.8-5.1-8.4-9.3-10.8c3-2.1,6-4.1,9.1-6.1c0.6,0.2,1.2,0.2,1.9,0.2
			c0,0.1,0.1,0.1,0.1,0.2c3.4,7.3,7.5,15.3,15.3,18.7c6.2,2.7,14.2,2.3,19.2-2.6c5.8-5.7,5.1-14.9,0.4-21.1
			c-3.5-4.5-8.4-6.8-13.7-8.1c3.3-1.5,6.6-2.9,9.9-4.3c0.6,0.8,1.3,1.3,2.1,1.7c0.7,5.7,5,10,9.2,13.6c4.6,4,10.1,7.4,16.4,6.6
			c5.9-0.8,10.5-5.4,10.8-11.4c0.4-9.5-7.9-16.7-16.6-20.4c-1.2-0.7-2.5-1.3-3.8-1.7c3.7-8.1,5-17.3,3.3-26.3
			c-0.8-4.5-5.5-6.3-9.2-3.9c-10.4,6.4-16,18.6-15.2,30.5c-3.6,1.4-7.2,2.9-10.8,4.5c0.2-1.5,0.3-3,0.4-4.5
			c0.2-3.7,0.1-7.5-2.2-10.5c-2.2-2.9-6-4.2-9.6-3.3c-7.3,1.9-10.5,10.5-12.1,17c-1.2,4.7-1.3,9.5-0.7,14.3c-3.1,1.9-6.2,3.9-9.2,6
			c0.3-3.7,0.1-7.5-0.5-11.1c-0.8-4.5-2.2-9.2-5.9-12.1c-4-3.2-9.6-3.3-14-1.1c-8.3,4.2-11.6,14.7-11.3,23.4
			c0.2,7.3,3.2,14.2,8,19.6c-4,3.6-8,7.3-11.8,11.2c0-2.5-0.3-4.9-0.8-7.3c-1.9-8.8-9.4-17.3-19.2-15.2
			c-8.6,1.8-13.6,10.9-12.2,19.3c1.6,9.4,8.9,15.6,16.4,20.8c-5.3,6.4-10.4,13.1-15.1,19.9c-0.6-3.9-1.9-7.6-4-11.2
			c-4.8-8.1-14.4-12.6-23.6-10c-9.9,2.8-14,13.1-11.5,22.5c2.8,10.7,12.4,16.4,21.5,21.4c0.9,0.5,1.9,0.6,2.9,0.5
			c-4.6,8.1-8.9,16.5-12.8,24.9c-3.1-7.8-7.5-14.9-15.3-19c-9-4.7-21.3-2.6-26.4,6.7c-5,9.1-0.9,20.6,7.2,26.3
			c7.8,5.5,17,6.1,26.2,5.6c-3.1,8-6,16-8.7,24.1c-5.7-5.9-13.5-9.8-21.6-10.7C1257.1,1202.4,1243.1,1206.2,1239.1,1217.4z"/>
		<g>
			<path class="st1" d="M1533.4,1209c0-0.1,0-0.1,0-0.2C1533.3,1207.3,1533.3,1208.3,1533.4,1209z"/>
			<path class="st1" d="M1798.6,1202.3C1798.5,1201.9,1798.5,1202,1798.6,1202.3L1798.6,1202.3z"/>
			<path class="st2" d="M1560,1066.1C1560.5,1065.9,1560.7,1065.8,1560,1066.1L1560,1066.1z"/>
			<path class="st2" d="M1840.5,1240.7c-4.9-4.3-10.2-8.2-15.4-12c-2.1-1.5-4.2-3.1-6.3-4.6c-0.9-0.7-1.8-1.3-2.7-2
				c-0.6-0.4-1.1-0.9-1.7-1.3c-4.2-3.4-7.9-7-11.5-11c-0.1-0.1-0.2-0.2-0.3-0.3c0-0.1-0.1-0.1-0.1-0.2c-0.6-1-1.3-1.9-1.9-2.9
				c-0.6-1-1.1-2-1.7-3.1c0,0,0-0.1-0.1-0.2c-0.1-0.4-0.2-0.8-0.3-0.9c-0.3-1.2-0.6-2.3-0.9-3.5c-0.1-0.2-0.1-0.5-0.1-0.7
				c0,0,0,0,0,0c0.1-1.2-0.1-2.5-0.1-3.8c0-0.6,0.1-1.3,0.1-1.9c0-0.1,0-0.2,0-0.3c1.3-5.2,2.6-10.3,4.6-15.3
				c0.1-0.1,0.1-0.3,0.1-0.4c0.1-0.2,0.2-0.4,0.3-0.7c0.6-1.2,1.1-2.4,1.7-3.7c1.3-2.8,2.6-5.7,4-8.5c2.6-5.8,5.3-11.6,7.3-17.7
				c3.8-11.7,4.9-25,0.1-36.6c-10.4-25.5-36.1-32.8-59.8-41.3c-2.2-0.8-4.3-1.6-6.5-2.4c-0.3-0.1-1.8-0.8-2.4-1.1
				c-1.7-0.8-3.5-1.7-5.2-2.6c-2.6-1.4-5-2.9-7.5-4.5c-1.2-0.8-2.4-1.6-3.6-2.5c-0.6-0.4-1.2-0.9-1.8-1.3c0,0,0,0,0,0
				c-0.1,0-0.1-0.1-0.2-0.1c-4.9-4-9.5-8.3-13.6-13.1c-1-1.1-1.9-2.2-2.8-3.3c-0.1-0.2-0.2-0.3-0.3-0.4c-0.2-0.3-0.5-0.7-0.7-1
				c-1.9-2.5-3.6-5.2-5.2-7.9c-1.5-2.5-2.9-5-4.2-7.6c-0.7-1.3-1.3-2.6-1.9-3.9c0,0-0.1-0.3-0.2-0.6c-0.3-0.7-1-2.5-1.1-2.8
				c-2.4-6.6-4.3-13.4-6-20.2c-3.8-14.6-7.4-29.3-14.2-42.9c-12.3-24.5-42.1-46.2-70.4-36.5c-28.3,9.7-39.7,40.6-38,68.4
				c0.5,8.7,2,17.3,3.4,25.9c0.6,3.6,1.2,7.2,1.7,10.8c0.4,2.4,0.1,0.6,0.4,3c0.2,2,0.4,4.1,0.6,6.1c0.2,2.8,0.2,5.7,0.2,8.5
				c0,1.4-0.1,2.9-0.2,4.3c0,0.4-0.1,0.8-0.1,1.2c0,0.4-0.1,1-0.2,1.6c-0.5,2.8-1.2,5.5-2.1,8.2c-0.1,0.4-0.9,2.3-1.1,2.8
				c-0.1,0.2-0.2,0.3-0.2,0.4c-0.4,0.8-0.8,1.6-1.3,2.4c-0.5,0.9-1.1,1.7-1.7,2.6c0.2-0.4-1,1.2-1.6,1.8c-0.7,0.7-1.5,1.5-2.3,2.1
				c0.6-0.6-1.9,1.2-2.8,1.7c-1.1,0.6-2.2,1.1-3.3,1.7c0.3-0.2,0.6-0.3,0.8-0.4c-0.4,0.2-1,0.5-1.6,0.7c-2.6,0.9-5.2,1.7-7.9,2.4
				c-11.4,3-22.8,4.8-33.7,9.6c-12.4,5.5-22.4,16.4-25.9,29.6c-3.9,14.9,0.1,30.2,6.7,43.7c3.3,6.7,7.6,12.8,12.1,18.7
				c1.9,2.4,3.8,4.8,5.7,7.3c1,1.2,2,2.5,2.9,3.7c0,0,0.4,0.5,0.7,0.8c0.3,0.4,1.1,1.4,1.2,1.6c4,5.4,7.7,11,10.7,17.1
				c0,0.1,0.1,0.1,0.1,0.2c0.2,0.5,0.4,1,0.6,1.5c0.5,1.4,0.9,2.8,1.3,4.3c0.2,0.7,0.3,1.3,0.4,2c0.1,1.6,0.1,3.2,0.1,4.8
				c0,0.5,0,0.7,0,0.9c0,0.2-0.1,0.4-0.2,0.7c-0.3,1.4-0.7,2.8-1.1,4.2c-0.2,0.7-1,2.5-0.9,2.5c-0.7,1.5-1.4,2.9-2.2,4.4
				c-3.1,5.5-6.8,10.6-10.5,15.7c-8.2,11.4-14.9,23.2-19.2,36.6c-8.9,27.7-6.9,58,4.6,84.6c10.3,23.8,30.1,44,53.1,55.9
				c9.2,4.8,19,8.5,29.2,10.7c-2.9,7.3-0.8,16.2,6.5,20.2c50.8,28,111.9,31.6,165.5,10.1c-2.4-9.5-4.5-19.1-6.1-28.9
				c-1.2-11.5-1.4-23-0.5-34.6c1.4-7.6,3.4-15.1,6.1-22.4c4.7-9.5,10.3-18.5,16.6-27.1c19.5-24.2,41.3-46.2,59.5-71.5
				c5.9-8.3,11.3-17,16.1-26.2C1847,1246.7,1843.8,1243.6,1840.5,1240.7z M1533.4,1208.8c0,0.1,0,0.1,0,0.2
				C1533.3,1208.3,1533.3,1207.3,1533.4,1208.8z M1575.8,1041.1C1575.8,1041,1575.8,1041,1575.8,1041.1
				C1575.8,1041,1575.8,1041,1575.8,1041.1z M1798.6,1202.3C1798.5,1202,1798.5,1201.9,1798.6,1202.3L1798.6,1202.3z"/>
		</g>
		<path class="st3" d="M1798.9,1261.6c-0.8-4.3-7.3-2.5-6.5,1.8c4.4,24-18.5,40.4-36.5,50.6c-14.3,8.1-29.8,15.9-40.3,28.6
			c3.9-27.7,4.8-55.7,2.1-83.7c-1.4-15.1-3.8-30-7.1-44.7c0.9-17.5,13.8-31.7,24.8-44.6c11.3-13.3,22.4-28.4,21.9-46.7
			c-0.1-4.3-6.9-4.4-6.8,0c0.5,19.9-14.2,35-26.1,49.2c-6.9,8.2-13.6,17.3-17.5,27.4c-3.2-11.7-7-23.3-11.4-34.7
			c-11.9-30.7-27.4-59.8-41-89.8c-15.4-34-28.2-70.1-28.8-107.8c-0.1-4.4-6.8-4.4-6.8,0c1.1,67.8,39.1,125.9,64.7,186.4
			c7.9,18.5,14.1,37.6,18.8,57c-20.4-17.2-44.3-30.1-70.1-37.3c-25.8-7.3-65.6-11.7-71.2-44.5c-0.7-4.3-7.2-2.5-6.5,1.8
			c5.3,31.3,39.8,40.3,65.9,46.6c31.5,7.7,60.3,22.3,84.2,44.4c0.1,0.1,0.1,0.1,0.2,0.2c8.5,41,9.7,83.3,3.1,125.1
			c-10.8-5.8-24.1-2.8-36.2-1.8c-15.4,1.3-30.1-3.4-42.9-11.9c-28.2-18.7-41.3-51.6-53.3-81.8c-1.6-4-8.1-2.3-6.5,1.8
			c12,30.2,24.8,62,51.5,82.3c11.7,8.9,25.5,15.1,40.2,16.4c14.2,1.2,33.5-6.9,46,2.2c-5.7,32.8-13.2,69.6,7.8,98.6
			c2.5,3.5,8.4,0.1,5.8-3.4c-19.6-27.1-12.7-61.6-7.3-92.1c0.7-0.3,1.3-0.7,1.7-1.4c11.2-21.3,35.3-29.5,54.4-41.8
			C1787,1302.4,1803,1284.1,1798.9,1261.6z"/>
		<g>
			<path class="st4" d="M505.6,1592.9c24.2-17.9,43.8-41.2,54.4-69.6c4.9-13.2,7.4-27.7,6.9-41.9c-0.6-17-5.2-33.5-9.4-49.8
				c-2-7.7-3.8-15.4-5.1-23.3c0-0.2-0.1-0.4-0.1-0.6c-0.1-0.9-0.2-1.9-0.3-2.8c-0.2-1.9-0.3-3.8-0.4-5.8c-0.1-3.6,0-7.3,0.4-10.9
				c0-0.3,0.1-0.6,0.1-0.7c0.2-1.1,0.4-2.1,0.6-3.2c0.4-1.9,0.9-3.7,1.5-5.5c0.2-0.7,1.1-2.9,1.1-3.1c0.7-1.5,1.4-2.9,2.1-4.4
				c1.7-3.1,3.5-6,5.5-8.9c0.3-0.5,2.2-2.8,1.9-2.6c1.2-1.5,2.4-2.9,3.6-4.3c9.5-11,20.6-20.6,29.9-31.8c9.9-11.9,18.1-25.8,21.4-41
				c3.6-16.6,1.1-33-9.5-46.5c-9-11.5-22.9-17.2-36.2-21.9c-2.9-1-5.8-2-8.7-3c-1.5-0.5-3.1-1.1-4.6-1.7c-0.8-0.3-1.7-0.7-2.5-1
				c-0.1,0-0.1,0-0.1,0c0,0,0,0,0,0c-2.7-1.3-5.4-2.6-8-4.1c-1.4-0.8-2.7-1.7-4-2.7c-0.1-0.1-0.2-0.2-0.3-0.3
				c-0.8-0.7-1.7-1.5-2.5-2.2c-1.1-1-2.1-2.1-3-3.2c-0.5-0.6-0.9-1.1-1.4-1.7c0,0-0.1-0.1-0.1-0.1c0-0.1-0.1-0.1-0.1-0.2
				c-1.9-3-3.9-5.9-5.5-9c-0.5-1-1-2.1-1.5-3.1c0.2,0.4-1.1-2.9-1.3-3.5c-1.2-3.4-2.2-6.9-2.9-10.4c-0.3-1.5-0.6-3-0.9-4.5
				c-0.2-0.9-0.3-1.8-0.4-2.7c0-0.1,0-0.3,0-0.4c-0.3-3.5-0.6-7-0.7-10.5c-0.2-8.8,0.5-17.5,1.4-26.3c1.8-16.9,5-33.9,5-50.9
				c0-14-2.5-29.4-11.1-40.8c-10.8-14.2-27.1-19.9-44.5-16.5c-34.2,6.7-50.4,41.7-62.3,70.6c-1.4,3.4-2.8,6.8-4.2,10.2
				c-0.1,0.2-0.2,0.4-0.2,0.6c0,0.1-0.1,0.2-0.1,0.3c-0.3,0.8-0.7,1.6-1,2.4c-0.9,2.2-1.9,4.3-2.9,6.4c-3.3,6.9-6.9,13.7-11.3,19.9
				c-0.5,0.7-1,1.4-1.5,2.1c0.3-0.4,0.5-0.7,0.6-0.8c-0.1,0.2-0.6,0.8-0.7,1c-1.2,1.5-2.5,2.9-3.8,4.3c-1.3,1.3-2.6,2.6-3.9,3.9
				c-0.6,0.5-1.2,1-1.8,1.5c-0.2,0.2-0.3,0.3-0.5,0.4c-0.1,0.1-0.3,0.2-0.5,0.3c-3,2-6,3.7-9.2,5.4c-0.2,0.1-0.5,0.2-0.7,0.3
				c-0.5,0.2-0.9,0.4-1.4,0.5c-1.8,0.6-3.7,1.2-5.6,1.6c-0.8,0.2-1.5,0.3-2.3,0.5c-0.1,0-0.2,0-0.3,0.1c0,0-0.1,0-0.1,0
				c-1.7,0-3.4,0.2-5.2,0.2c-0.9,0-3.3-0.4-3.1-0.3c-1.5-0.4-3-0.8-4.5-1.1c-0.2-0.1-0.4-0.1-0.6-0.1c0,0,0,0-0.1,0
				c-0.7-0.4-1.5-0.7-2.2-1.1c-1.6-0.8-3.2-1.7-4.8-2.7c-3.2-1.9-6.3-3.9-9.5-5.6c-15.4-8.2-32.5-8.7-47.8,0.2
				c-13.8,8.1-24,22-28.7,37.1c-5,16.4-3.1,34.2,0.5,50.8c11.3,8.5,22.6,16.8,33.8,25.3c21.3,16.9,41.6,35.2,58.8,56.3
				c7,9.6,13.2,19.8,18.3,30.5c2.6,7.1,4.6,14.3,6.1,21.6c0.5,6.3,0.5,12.7,0,19c-1.8,9.4-4.6,18.6-8,27.6
				c-12.2,26.3-28.5,50.4-42.9,75.6c-18.9,33.2-33.2,68-35.9,106.4c-1.2,17.8,1,35.2,5.7,51.8c8.8,0.1,17.5-0.2,26.1-0.6
				c33.2-1.5,66.6-3.3,99.2-9.5C448.9,1622.5,480,1611.8,505.6,1592.9z"/>
			<path class="st5" d="M544.9,1255.1c-21.2,5.2-40.3,15.9-58.3,28.1c-18.8,12.8-36.8,26.6-55,40.1c2.3-5.6,4.4-11.3,6.4-17
				c12.6-37.4,12.6-76.1,13.6-115.1c1-40.4,4.9-83.9,30.6-117c1.5-1.9-1.2-4.7-2.7-2.7c-48.7,62.7-21.7,148.1-40.9,219.6
				c-4.6,17.1-11,33.4-18.6,49.2c-1-28.9-20.6-53.5-40.4-73.2c-21.9-21.9-47.6-43.3-55.8-74.4c-0.6-2.4-4.4-1.4-3.7,1
				c7.7,29.2,30.4,50.3,51.3,70.7c22.4,21.8,46.7,48.7,44.7,82.2c0,0.5,0.1,0.8,0.3,1.1c-24.9,49.2-59.8,93.6-82.8,143.7
				c-17.5,38-28.5,79.7-22,121.6c0.4,2.5,4.1,1.4,3.7-1c-8.8-57,14.3-109.8,42.6-158.6c0.2,0,0.3,0,0.5-0.1
				c40.7-14.9,81.5-29.7,122.2-44.6c2.3-0.8,1.3-4.6-1-3.7c-39.6,14.4-79.1,28.9-118.7,43.3c9.4-15.9,19.3-31.5,28.7-46.6
				c14.4-23.3,28.5-47.1,39.5-72.2c0.4,0,0.8,0,1.2-0.4c18.9-13.9,37.6-28.3,57-41.6c18.1-12.4,37.3-23.4,58.7-28.6
				C548.3,1258.2,547.3,1254.5,544.9,1255.1z"/>
		</g>
		<g>
			<g>
				<path class="st6" d="M1139.8,1575.7c-19.4-38.6-41.4-79.1-80.8-100.7c-20.7-11.3-43.4-15.1-66.8-12.7
					c-12.7,1.3-25.3,3.6-37.9,5.5c-0.5,0.1-0.9,0.1-1.2,0.2c-1.1,0.1-2.2,0.3-3.3,0.4c-2.4,0.3-4.7,0.5-7.1,0.6
					c-5.3,0.4-10.5,0.5-15.8,0.1c-1-0.1-2.1-0.1-3.1-0.2c0,0-1.9-0.3-2.8-0.4c-0.9-0.2-1.9-0.3-1.8-0.3c-1-0.2-2-0.4-3-0.7
					c-2.2-0.5-4.4-1.2-6.6-2c-0.5-0.2-1.8-0.8-2.1-0.9c-0.9-0.5-1.9-0.9-2.8-1.4c-1.2-0.7-3.2-1.5-4.4-2.5c-0.2-0.3-0.5-0.7-0.9-0.9
					c-0.6-0.5-1.1-1-1.7-1.5c-1.2-1.2-2.4-2.4-3.6-3.6c-0.6-0.7-1.3-1.4-1.9-2.1c-0.2-0.3-0.5-0.6-0.7-0.9c-1.2-1.5-1-1.2,0.6,0.8
					c-1.6-0.3-4.9-7.3-5.7-8.7c-2-3.4-3.8-6.9-5.6-10.4c-3.4-6.8-6.4-13.8-9.6-20.6c-6.4-13.6-14-27.8-25.7-37.6
					c-14.7-12.4-32.9-18-52-16c-18.3,1.9-35.2,8.4-52.8,13.3c-3.9,1.1-7.8,2-11.7,2.8c-0.9,0.2-1.7,0.3-2.6,0.5c0,0,0.1,0,0.1,0
					c0,0-0.1,0-0.2,0c-0.2,0-0.4,0.1-0.6,0.1c-1.4,0.3-1.3-0.1-0.7-0.2c-1.6,0.1-3.8,0.6-5,0.7c-2.1,0.1-4.2,0-6.3-0.1
					c-0.3,0-0.9,0-1.5-0.1c-0.2-0.1-0.5-0.2-0.8-0.3c-1.9-0.5-3.7-0.9-5.6-1.5c-0.1,0-0.4-0.1-0.9-0.3c-0.1-0.1-0.3-0.1-0.4-0.2
					c-0.3-0.2-0.7-0.3-1-0.5c-1.6-0.8-3.2-1.7-4.7-2.7c-0.5-0.3-1-0.7-1.6-1.1c-2.4-2.3-5-4.4-7.3-6.9c-1.3-1.4-2.5-2.8-3.7-4.2
					c-0.1-0.1-0.3-0.3-0.5-0.6c-0.1-0.1-0.1-0.2-0.2-0.3c-2.3-3.1-4.5-6.2-6.6-9.4c-8.6-12.8-16.7-26.4-27.8-37.2
					c-13-12.7-30.9-21.2-49.4-19.2c-22.9,2.4-41.6,15.7-55.2,33.8c-13.1,17.5-18.5,39.5-21.5,60.8c-0.9,6.2-1.7,12.3-2.4,18.5
					c-0.3,2.6-0.6,5.2-1,7.8c-0.1,1.1-0.3,2.3-0.4,3.4c-0.1,0.5-0.4,2.8-0.5,3.2c-1.4,9.3-3.2,18.5-6.2,27.5
					c-0.6,1.8-1.2,3.5-1.9,5.3c0,0-0.3,0.7-0.5,1.3c-0.3,0.7-0.9,2.2-1,2.2c-1.9,4.2-4.1,8.2-6.7,12c-0.6,0.8-2.2,3-2.1,3
					c-1.1,1.4-2.3,2.7-3.5,4c-1.2,1.3-2.5,2.5-3.9,3.7c-0.1,0.1-1.4,1.1-1.9,1.5c-0.6,0.4-1.3,0.9-1.5,1c-1.7,1.1-3.5,2-5.3,3
					c-0.2,0.1-0.3,0.2-0.4,0.2c-0.1,0-0.1,0-0.2,0.1c-1.3,0.4-2.6,0.9-4,1.3c-5.1,1.5-10.4,2.5-15.7,3.3c-10,1.5-20,2.7-29.5,6.4
					c-34.8,13.5-58.5,49.5-57.7,86.9c0.1,4.5,0.5,9,1.3,13.4c-3.9,3.3-6.6,8.2-6.3,13.3c0.4,9.6,7.6,17.2,17.4,17.4
					c104.7,2.4,209.4,4.8,314,7.3c52.2,1.2,104.4,2.4,156.5,3.6c26.1,0.6,52.2,1.2,78.3,1.8c23.6,0.5,47.2,1.6,70.8,1.3
					c44.8-0.6,94.7-7.7,126.1-43.2C1142.5,1590.6,1143.5,1583,1139.8,1575.7z M1076,1535.3C1076,1535.3,1076,1535.3,1076,1535.3
					C1075.5,1534.6,1075.5,1534.6,1076,1535.3z M828.1,1407c0,0.1,0.1,0.1,0.1,0.2C827.6,1406.3,826.9,1405.2,828.1,1407z
					 M828.9,1407.9C828.8,1407.9,828.8,1407.9,828.9,1407.9C828.8,1407.9,828.9,1407.9,828.9,1407.9z M814.7,1395.8
					c-0.5-0.2-0.9-0.3-0.9-0.3C813.9,1395.4,814.2,1395.6,814.7,1395.8z M704.7,1373.8c-0.6-0.2-1.1-0.4-1.2-0.5
					C704,1373.5,704.4,1373.7,704.7,1373.8z M585.5,1334.3C584.9,1334.7,584.4,1335.1,585.5,1334.3L585.5,1334.3z"/>
				<path class="st6" d="M821.3,1399.9c-0.2-0.1-0.5-0.4-0.8-0.6c-0.3-0.2-0.5-0.3-0.7-0.5C820,1399.6,821.3,1400.1,821.3,1399.9z"
					/>
				<path class="st6" d="M726.3,1375.5C726.4,1375.5,726.4,1375.5,726.3,1375.5c-0.5-0.2-1-0.2-1.3-0.1
					C725.6,1375.4,726,1375.4,726.3,1375.5z"/>
				<path class="st6" d="M603.4,1326.2C603.4,1326.2,603.3,1326.2,603.4,1326.2c-0.6,0.1-1.1,0.2-1.7,0.3
					C601.7,1326.6,602.1,1326.6,603.4,1326.2z"/>
				<path class="st6" d="M617.2,1328.6C617.2,1328.6,617.2,1328.6,617.2,1328.6c-0.6-0.1-1.2-0.4-1.7-0.6
					C615.4,1328.1,615.9,1328.6,617.2,1328.6z"/>
			</g>
			<path class="st5" d="M438.3,1581.6c2.4-29.1,34.9-41.2,57.9-50.4c12.4-5,24.9-10.5,35-19.4c9.8-8.6,16.3-20.1,20.8-32.2
				c10.1-27.1,9.8-58.1,25.6-83c7.2-11.3,18.7-20.6,32-23.5c11.9-2.6,23.2,1.6,31.8,9.7c14.9,14,21.9,34.6,37.7,47.9
				c8.6,7.2,18.8,10.8,30.1,10.6c14.8-0.3,28.9-5.9,43.7-6.3c24.9-0.8,43.5,17.3,60.7,32.8c8.6,7.8,17.5,15.6,27.5,21.7
				c11.4,6.9,24.2,10.6,37.5,12c30,3.3,60.2-4.6,90.1,0.2c13.7,2.2,27.4,7.1,37.3,17.2c8.3,8.4,14.4,19.9,14.6,31.8
				c0.1,6-1.4,11.8-4.4,17c-1.9,3.2,3.1,6.2,5,2.9c12.2-21.2,0.8-47.5-17.4-61.3c-23.8-18.1-56.8-15.6-84.8-13.8
				c-16.2,1-32.8,2-48.8-1.1c-14-2.7-26.3-9-37.4-17.8c-18.6-14.5-34.3-34.2-56.6-43.3c-12.6-5.1-25.6-4.8-38.8-2.4
				c-14.7,2.7-30.8,7.9-45.3,1.3c-19.8-9-28.3-32.7-41.7-48.4c-6.6-7.7-15-14.3-25.1-16.5c-12.3-2.7-25.1,1.1-35.3,8.1
				c-25.2,17.4-30.3,48.8-36.3,76.6c-3.1,14.1-6.9,28.5-14.5,41c-8,13.1-20,21.5-33.7,27.8c-24.2,11.1-54.2,18.1-68,43.4
				c-2.9,5.4-4.5,11.1-5,17.2C432.2,1585.3,438,1585.3,438.3,1581.6L438.3,1581.6z"/>
		</g>
		<g>
			<g>
				<path class="st1" d="M1535,1316.3C1534.3,1316.2,1533.3,1316.1,1535,1316.3L1535,1316.3z"/>
				<path class="st1" d="M1350.9,1391.6C1350.2,1391.9,1349.4,1392.3,1350.9,1391.6L1350.9,1391.6z"/>
				<path class="st4" d="M1163.7,1410.9C1163.7,1410.9,1163.7,1410.9,1163.7,1410.9c-0.1,0.2-0.2,0.3-0.2,0.4
					C1163.6,1411.2,1163.6,1411.1,1163.7,1410.9z"/>
				<path class="st4" d="M1715.2,1429.5c-3.5-0.8-6.9-1.7-10.3-2.8c-1.1-0.4-2.2-0.8-3.2-1.2c0.6,0.2-3-1.5-3.7-1.9
					c-1.4-0.8-2.6-1.6-3.9-2.5c0.5,0.3-1.8-1.4-2.4-2c-0.6-0.6-1.2-1.1-1.7-1.7c0,0-0.5-0.6-1-1.1c-0.4-0.5-1.3-1.7-1.3-1.7
					c-0.6-0.8-1.1-1.7-1.6-2.6c-0.8-1.3-1.4-2.7-2.1-4c0.5,1.1-0.8-2.2-1.1-3c-1.3-4-2.2-8.1-3-12.2c-0.2-0.9-0.6-4.2-0.5-3.4
					c-0.2-1.6-0.4-3.2-0.5-4.8c-0.4-4.1-0.6-8.2-0.9-12.3c-0.5-8.1-1.2-16.1-2.5-24.2c-2.6-15.3-8.4-30.9-19.4-42.1
					c-12.6-12.9-30.3-17-47.7-13.7c-15.4,2.9-29.2,11.7-43.3,18.2c-0.6,0.3-3.3,1.4-3.2,1.4c-1.6,0.6-3.1,1.2-4.7,1.8
					c-3.1,1.1-6.3,2-9.6,2.5c-0.3,0-1.8,0.2-2.2,0.2c-1,0.1-2,0.1-3,0.1c-2.2,0-4.5-0.1-6.7-0.3c-0.2,0-0.4,0-0.6,0
					c-1.2-0.2-2.4-0.4-3.6-0.6c-2.5-0.5-4.9-1.1-7.4-1.8c-17.6-5-33.9-14-51.7-18.3c-18.8-4.6-39.6-4.7-56.4,6.1
					c-13.9,8.9-23,22.8-29.9,37.6c-3.1,6.7-5.9,13.5-8.9,20.2c-1.5,3.4-3.1,6.7-4.9,9.9c-0.9,1.6-1.9,3.2-2.9,4.8
					c-0.6,0.9-1.1,1.8-1.7,2.6c-0.1,0.1-0.5,0.6-0.8,1.1c-0.4,0.5-1.4,1.8-1.4,1.8c-0.5,0.6-1.1,1.3-1.6,1.9
					c-1.2,1.4-2.5,2.7-3.8,3.9c-0.5,0.5-4.3,3.5-2.5,2.2c-1.4,1-2.8,1.9-4.3,2.8c-0.6,0.3-1.2,0.6-1.8,0.9c-1.5,0.5-3.1,0.8-4.6,1.3
					c0,0,0,0-0.1,0c-0.7,0-1.4,0.1-2.1,0.1c-0.8,0-1.5-0.1-2.3-0.1c-0.1,0-0.2,0-0.2-0.1c-1.2-0.3-2.4-0.7-3.6-1
					c0,0.1,0.1,0.1,0.1,0.2c0-0.1-0.2-0.2-0.4-0.3c0,0-0.1,0-0.1,0c-0.7-0.2-1-0.4-1.1-0.5c0,0,0,0,0,0c-2.7-1.4-5-3.1-7.5-4.7
					c-0.4-0.4-0.9-0.7-1.3-1.1c-1-0.9-2-1.7-3-2.6c-2.5-2.2-4.9-4.5-7.3-6.8c-9.5-9.1-19.5-18.3-32.3-22.5
					c-16.2-5.2-34.2,0.9-45,13.7c-11.3,13.3-15.3,29.3-20.3,45.7c-0.6,2.1-1.3,4.3-2.1,6.4c-0.3,0.8-0.6,1.7-0.9,2.5
					c0,0.1-0.1,0.2-0.2,0.4c0-0.1,0.1-0.2,0.2-0.3c-0.1,0.1-0.1,0.2-0.2,0.3c-0.3,0.6-0.7,1.4-0.2,0.4c-0.7,1.5-1.5,3-2.3,4.5
					c-0.4,0.8-0.9,1.5-1.4,2.2c-0.3,0.4-0.6,0.9-0.9,1.3c-1.2,1.2-2.2,2.5-3.5,3.7c-0.7,0.7-2.4,1.9-2.4,2c-2.5,1.6-5,3.1-7.6,4.3
					c-0.3,0.1-2.1,0.8-2.9,1.1c-1.7,0.6-3.3,1.1-5,1.5c-3.7,1-7.4,1.7-11.1,2.4c-0.8,0.1-1.6,0.3-2.4,0.4c0,0-1,0.1-1.7,0.2
					c-0.4,0.1-0.8,0.1-1,0.1c-1,0.1-2,0.2-3.1,0.4c-3.7,0.4-7.4,0.8-11,1.2c-16.7,1.7-33,4.2-48.8,10.1
					c-15.8,5.8-30.7,13.6-44.1,23.8c-26.9,20.4-51.1,49.3-56.3,83.7c-2.7,17.5-0.7,35.6,9.3,50.7c0.9,1.4,2.1,2.7,3.4,3.8
					c2.3,5.4,7.4,8.9,13.8,9.3c81.1,4.7,162.3,9.4,243.4,14c81.4,4.7,162.8,9.4,244.2,14.1c39.4,2.3,79.2,6,118.7,4.8
					c36.4-1.1,73-7.5,105.3-25.1c19.1-10.4,36-24.5,48.7-41.8c-5.2-23.4-12.2-46.2-19.9-69.2c-9.7-29.2-19.8-58.6-25.3-88.9
					c-5.3-1.4-10.7-2.4-16.1-3.3C1729.7,1432.1,1722.4,1431.1,1715.2,1429.5z M1350.9,1391.6
					C1349.4,1392.3,1350.2,1391.9,1350.9,1391.6L1350.9,1391.6z M1535,1316.3C1533.3,1316.1,1534.3,1316.2,1535,1316.3L1535,1316.3z
					"/>
				<path class="st4" d="M1402.8,1312C1402.6,1312,1402.6,1312,1402.8,1312L1402.8,1312z"/>
				<path class="st4" d="M1217.1,1370.9c0,0.1,0.3,0.1,0.5-0.1c0,0,0,0,0,0C1217.4,1370.8,1217.3,1370.9,1217.1,1370.9z"/>
			</g>
			<path class="st5" d="M1765.4,1485.9c-0.7-2.2-1.3-4.4-2-6.6c-4.4-1.1-8.9-2.1-13.4-2.8c-36.5-6.1-84.3-3.5-109.1-36.7
				c-12.1-16.3-10.4-37.3-18.1-55.4c-6-14-18.1-25.4-34.1-23.6c-27.6,3-48.7,40.1-78.4,26.7c-14-6.3-23.9-18.9-37.2-26.3
				c-14.3-7.9-30-6.4-42.7,4c-14.9,12.2-20.8,30.5-27.5,47.8c-6.7,17.4-15.8,32.5-33.1,40.8c-13.7,6.6-29.9,8.3-44.7,5
				c-7.5-1.7-14.7-4.7-21.1-9.1c-6.6-4.5-11.4-10.7-16.5-16.7c-5.1-6-11.1-12.3-19.2-13.9c-6.9-1.4-13.5,0.7-18.9,5.1
				c-12.5,10.3-16.9,27.5-27.7,39.3c-27,29.5-69.4,35-105.2,48c-17.6,6.4-35.1,14.8-48.3,28.4c-11.7,12.1-20.3,27.9-21.9,44.8
				c-0.7,8.2,0.5,16.5,3.7,24.1c1.4,3.4,7,1.9,5.6-1.5c-6.8-16.4-3.2-34.2,5.8-49.1c10-16.5,25.6-27.6,42.9-35.5
				c34.2-15.6,73.3-19.3,104.9-40.9c7.2-4.9,13.9-10.7,19.4-17.4c5-6.2,8.7-13.1,12.7-19.9c3.7-6.4,7.8-13.6,14.3-17.6
				c7.7-4.7,15.9-1.6,22,4.2c5.9,5.6,10.3,12.5,16.2,18.1c5.1,4.8,11.1,8.6,17.5,11.4c12.9,5.6,27.3,7,41.1,4.8
				c13.8-2.2,27.2-8.5,37.1-18.4c13-13,17.9-31.2,24.6-47.8c6.6-16.2,18.6-36.2,38.3-37.3c15.7-0.9,28,11.9,39.4,20.9
				c10.8,8.5,22.8,15.4,37,13.1c13.8-2.3,25.3-11.5,36.8-18.9c11.6-7.5,26.2-15.1,39.3-6.2c16.3,11,16.3,34,20.9,51
				c9.5,35.6,44.7,50.1,78.1,55C1723.5,1479.3,1745.6,1480.4,1765.4,1485.9z"/>
		</g>
		<path class="st7" d="M1702.3,1828.1c35-18.3,67.8-48.1,84.8-84.2c15.7-33.5,22.4-70,18.3-106.9c-2.5-22.2-7.1-43.7-12.8-64.9
			H288.4l0,0c-0.7,4.8-1.3,9.7-1.6,14.7c-3.2,46.5,16.9,89.9,45.2,125.4c25,31.3,60.2,54.5,96.5,70.7
			c74.5,33.1,155.3,52.7,235.9,63.7c82.1,11.2,164.6,14.1,247.1,6c14.5-1.4,29-3.1,43.4-5.1c107.2-14.6,215.6-18,323.4-8.9
			c52.9,4.5,105.8,9,158.7,13.5C1526.3,1859.7,1619.5,1871.4,1702.3,1828.1z"/>
		<g>
			<polygon class="st8" points="620,1758.5 620,1758.5 620,1758.5 620,1758.5 			"/>
			<path class="st8" d="M620,1759c0,0,0,0.1,0,0.1c0,0.2,0,0.4,0,0.5c0,0,0,0,0,0.1C620,1759.5,620,1759.3,620,1759z"/>
			<path class="st8" d="M799.7,1759.4C799.7,1759.4,799.7,1759.4,799.7,1759.4C799.4,1760.3,799,1762,799.7,1759.4z"/>
			<path class="st8" d="M626.7,1766.3C626.7,1766.4,626.7,1766.4,626.7,1766.3c-0.3-0.2-0.6-0.3-0.7-0.4
				C626.3,1766.1,626.5,1766.2,626.7,1766.3z"/>
			<path class="st8" d="M620,1758.7C620,1758.7,620,1758.7,620,1758.7c0,0.1,0,0.2,0,0.2c0,0,0,0,0,0
				C620,1758.9,620,1758.8,620,1758.7z"/>
			<path class="st8" d="M798.8,1718c-10.5-2.4-21.1-1.8-31.5,0.9c-4.9,1.3-9.6,3-14.2,4.9c-6.4,2.6-9.1,3.9-14,5.8
				c-4.8,1.9-9.7,3.6-14.7,4.9c-2.3,0.6-4.5,1.1-6.8,1.5c-0.9,0.2-1.8,0.3-2.8,0.5c1.6-0.3-2.9,0.3-3,0.3c-4.9,0.4-9.9,0.5-14.8,0.3
				c-2.6-0.1-5.1-0.3-7.6-0.6c-0.2,0-0.5-0.1-0.8-0.1c-1.7-0.3-3.4-0.6-5.1-1c-20.3-4.4-38.7-17.2-60.2-14.3
				c-23.1,3.1-42.3,21.8-37.1,46.3c2.6,12.1,11.8,23.1,22.7,28.7c11.8,6.1,24.8,7.6,37.8,8.1c0.5,0,1,0,1.5,0
				c1.7,0.5,3.4,0.9,5.3,0.9c23,0.6,45.9,1.2,68.9,1.8c22.3,0.6,45.6,3.2,67.7-0.8c22.6-4.1,42.3-21.3,44.4-44.8
				C836.3,1740,818.7,1722.5,798.8,1718z M799.8,1758.9C799.8,1758.9,799.8,1758.9,799.8,1758.9
				C799.8,1758.9,799.8,1758.9,799.8,1758.9C799.8,1758.9,799.8,1758.9,799.8,1758.9z M799.7,1758.2
				C799.6,1757.5,799.6,1757.7,799.7,1758.2L799.7,1758.2z M799.1,1756.6c0,0-0.1-0.1-0.3-0.4C799,1756.4,799.2,1756.6,799.1,1756.6
				z M788.3,1751.4c0.1,0,0.2,0.1,0.3,0.1C787.6,1751.3,785.5,1750.7,788.3,1751.4z M689.5,1736.6
				C690.3,1736.7,691.3,1736.9,689.5,1736.6L689.5,1736.6z M624.4,1756.1c0,0-0.5,0.2-1,0.4C623.8,1756.2,624.2,1756.1,624.4,1756.1
				z M620.7,1758.1C621.2,1757.6,621.6,1757.4,620.7,1758.1L620.7,1758.1z M780,1772.9C778.1,1773.2,779.1,1773,780,1772.9
				L780,1772.9z M789.7,1770.4C788.5,1771,789.1,1770.7,789.7,1770.4L789.7,1770.4z"/>
			<path class="st8" d="M620.1,1758.4C620.1,1758.4,620.1,1758.4,620.1,1758.4C620.1,1758.4,620.1,1758.4,620.1,1758.4
				C620.2,1758.4,620.2,1758.4,620.1,1758.4C620.2,1758.4,620.1,1758.4,620.1,1758.4z"/>
			<path class="st8" d="M620,1759c0-0.1,0-0.1,0-0.2C620.1,1758.8,620,1758.9,620,1759C620,1758.9,620,1759,620,1759z"/>
			<path class="st8" d="M620.1,1758.8c0,0,0-0.1,0-0.1c0,0,0,0,0,0C620.1,1758.7,620.1,1758.7,620.1,1758.8
				C620.1,1758.8,620.1,1758.8,620.1,1758.8z"/>
		</g>
		<g>
			<path class="st8" d="M1051.3,1749.3c-0.2,0.3-0.3,0.6-0.5,1C1050.9,1750,1051.1,1749.7,1051.3,1749.3
				C1051.3,1749.3,1051.3,1749.3,1051.3,1749.3z"/>
			<path class="st8" d="M1269.7,1714c-2.2-26-23.3-42.5-48.3-44.8c-27.5-2.5-50.7,14.2-71.2,30.4c-2,1.6-4.1,3.2-6.1,4.8
				c-0.4,0.3-1.6,1.3-1.9,1.5c-1.4,1-2.8,2.1-4.2,3.1c-5.1,3.7-10.5,7-16.2,9.8c-0.2,0.1-0.5,0.2-0.8,0.3c-1.9-1.7-4.2-3.1-6.8-3.9
				c-24-8-50.5-14.3-74-1.2c-21.7,12.1-32.7,38.2-21,61.1c10,19.6,32.7,29.3,53.6,30.1c19.9,0.8,38.9-5.9,56.6-14.2
				c16.2-7.5,31.5-16.8,47.8-23.9c-0.6,0.3,4.1-1.6,4.8-1.8c1.9-0.7,3.9-1.4,5.9-2c4.6-1.4,9.2-2.5,13.9-3.4c0.2,0,0.4-0.1,0.6-0.1
				c0.7-0.1,1.5-0.1,2.2-0.1c2.2-0.2,4.3-0.2,6.5-0.3c5-0.1,10,0.1,14.9-0.3c12.3-1,25-4.4,33.5-14
				C1266.9,1736.5,1270.6,1725.3,1269.7,1714z M1234.9,1714.6c0.1,0.1,0.1,0.4,0.2,0.9C1235,1715,1234.9,1714.6,1234.9,1714.6z
				 M1101,1722.6C1101,1722.6,1101,1722.6,1101,1722.6c0.6,0,1,0,1.1,0C1101.7,1722.6,1101.4,1722.6,1101,1722.6z M1054.7,1746
				C1055.2,1745.6,1055.6,1745.4,1054.7,1746L1054.7,1746z M1049.8,1751.4C1050.1,1750.3,1050,1750.8,1049.8,1751.4L1049.8,1751.4z
				 M1234.2,1721.3c0.1-0.2,0.1-0.3,0.2-0.5C1234.4,1720.9,1234.3,1721.1,1234.2,1721.3C1234.3,1721.2,1234.3,1721.3,1234.2,1721.3z
				 M1234.2,1721.3C1234.2,1721.3,1234.2,1721.3,1234.2,1721.3c0,0.3-0.1,0.5-0.2,0.6C1234.1,1721.7,1234.1,1721.5,1234.2,1721.3z
				 M1235.1,1718.4c0-0.6,0-1.2,0.2-1.1C1235.3,1717.3,1235.2,1717.9,1235.1,1718.4z"/>
			<path class="st8" d="M1051.4,1760.9c0.1,0.1,0.2,0.3,0.4,0.4c-0.1-0.1-0.2-0.3-0.4-0.5
				C1051.3,1760.8,1051.3,1760.9,1051.4,1760.9z"/>
		</g>
		<g>
			<g>
				<path class="st9" d="M1193,1046c-10.3-13.5-21.6-27.5-27.6-43.5c-2.9-7.8-4.9-15.8-4.9-24.1c0-7.3,1.7-14.4,4.7-19.7
					c3.1-5.5,7.1-9.7,12.5-12.8c4.7-2.7,9.7-3.9,15.2-3c14.1,2.4,26.5,14.3,35.2,25.5c10.1,13,16.5,28.7,19.1,45.5
					c1,6.3,8.9,9.9,14.6,8.3c6.8-1.9,9.3-8.2,8.3-14.6c-2.9-18.4-10.4-36.3-21.6-51.3c-11.5-15.4-26.9-30-45.7-35.5
					c-19-5.5-39.3,1.8-51.8,16.9c-13.7,16.6-16.6,38.1-12.1,58.8c5,23.3,19.5,42.9,33.7,61.4c3.9,5.1,10.2,7.8,16.3,4.3
					C1193.7,1059.4,1196.9,1051.2,1193,1046L1193,1046z"/>
				<path class="st10" d="M1283.9,993.3c-10.7-7.3-24.8-7.2-35.3,0.3l-31.2,22.1l-31.2,22.1c-10.6,7.5-15.3,20.7-12,33.2l27.5,102.6
					c5.6,20.8,30.2,29.7,47.8,17.2l61.3-43.5l61.3-43.5c17.6-12.5,17.3-38.6-0.4-50.8L1283.9,993.3z"/>
				<path class="st11" d="M1200.3,1025.2c16.4,23.5,32.8,47.1,49.2,70.6c0.8,1.1,3.1,0.8,5.1-0.6l12.7-9l7.8-5.5
					c2-1.4,3.1-3.5,2.3-4.6c-16.4-23.5-32.8-47.1-49.2-70.6c-0.8-1.1-3.1-0.8-5.1,0.6l-8.3,5.9l-12.1,8.6
					C1200.5,1022.1,1199.5,1024.1,1200.3,1025.2z"/>
				<path class="st9" d="M1218.6,1147.1c-8.1,0-15.8,1.7-22.8,4.7l5.9,21.8c5.6,20.8,30.2,29.7,47.8,17.2l19.4-13.8
					C1259.2,1159.3,1240.3,1147.1,1218.6,1147.1z"/>
				<path class="st9" d="M1371.6,1053.2l-19.3-13.2c-8.3,9.9-13.2,22.6-13.2,36.6c0,15.4,6.1,29.3,15.9,39.5l17.1-12.1
					C1389.6,1091.5,1389.4,1065.3,1371.6,1053.2z"/>
			</g>
			<path class="st10" d="M1070.4,551.4c-2.2-14.7-7.3-29-14.6-41.9c-7.3-12.9-17.9-22.7-26.8-34.3c-9-11.8-9.7-25.6-11.9-39.8
				c-2.3-14.3-7.7-28.3-15.7-40.3c-8-12-18.6-23.4-31.9-29.5c-13.6-6.2-27.9-6-41.5,0c-26.5,11.7-38.6,38.8-54.5,61.1
				c-3.9,5.5-8.4,10.5-13.5,15c-3.1,2.8-3.5,6.2-2.3,9.1c-6.2,4.5-12.1,9.4-16.9,15.5c-9.2,11.7-14.5,25.9-15,40.8
				c-1,30.7,19.2,55.9,46.5,67.6c13,5.6,26.7,8.2,40.1,12.3c6.1,1.9,12.3,4.2,17.4,8.2c5.2,4.1,8.9,9.8,13.4,14.6
				c21.5,22.9,57,15,83.2,6.1c7.4-2.5,14.7-5.5,21.9-8.8c6.8-3.2,13.2-6.8,17.6-13.1C1074.1,582.1,1072.4,565.1,1070.4,551.4z"/>
			<path class="st12" d="M838.7,525.7c0,0-32.2-5.5-37.1,27.4s-21.3,165.4-26.1,197.4c-4.8,31.9-54.2,127.7-55.1,158.7
				c-0.6,20-4.5,45-7.1,60c-1.6,8.9,0.7,18.1,6.2,25.3c10.5,13.5,27,32.8,30.9,25c5.8-11.6-16.4-35.8-8.7-55.1c0,0,5.8-16.4,7.4-4.5
				s7.7,25.5,11.9,22.6c4.2-2.9-0.3-10.3-1.3-21.9c-0.7-8.8-4.6-24.9-10.9-39.2c-3.8-8.5-3.4-18.3,1.3-26.4
				c14.9-26.2,45.9-81.8,50.3-98.9c5.8-22.6,33.2-140.3,33.2-140.3l7.3-130.1"/>
			<path class="st13" d="M840.8,525.5l-2.1,0.2c0,0-32.2-5.5-37.1,27.4c-4.2,28.6-17.2,132.6-23.7,180.2
				c-1.5,10.9-5.3,21.3-11.2,30.5c-15.5,24.2-45.9,74.5-44,95c2.6,27.4,24.9,13.6,40.6,46.4c15.7,32.9,36.2,42.6,43.5,13.5
				c7.3-29,7.3-157.6,7.3-157.6l-5.1-1.4c10.1-42.6,24.5-104.2,24.5-104.2L840.8,525.5z"/>
			<path class="st12" d="M971.7,548.9c0,0,26.2,2.3,36.2,46.3c10,44,16.8,152.4,30.3,170.3c11.9,15.7,62.1,82,83.7,124.8
				c5.4,10.7,14.7,19,26,22.9c17,6,40.2,14.4,45.6,17.7c8.7,5.3-9.3,58-32,38.2c-22.7-19.8-31.9-27.1-39.1-40.1
				c-7.3-13.1-111.7-110.3-117.5-134c-5.8-23.7-46.8-144.8-46.8-144.8s-16.6-74.8-15.2-74.8C944.4,575.3,971.7,548.9,971.7,548.9z"
				/>
			<linearGradient id="SVGID_1_" gradientUnits="userSpaceOnUse" x1="731.1013" y1="848.7366" x2="847.2556" y2="874.0027">
				<stop  offset="0" style="stop-color:#EFB6C9"/>
				<stop  offset="1" style="stop-color:#D690AA"/>
			</linearGradient>
			<path class="st14" d="M786.9,681.8c0,0,17.8,67.3,8.9,102.1c-13.2,51.7-27.9,151.7-4,291.7c2.1,12.3,17.1,17.3,26.2,8.7
				c15.8-15.1,39.2-33.1,64.4-37.4c45.1-7.7-22.6-204.3-20.6-211.1c1.9-6.9-30.3-188.8-30.3-188.8L786.9,681.8z"/>
			<path class="st13" d="M971.7,548.9c0,0-7.1-13.7-26.5-21.4c-19.3-7.7-26.6-22.3-43.5-24.2c-16.9-1.9-48.5,7.6-63,22.4l44.6,16.3
				l53.2,0.5L971.7,548.9z"/>
			<linearGradient id="SVGID_2_" gradientUnits="userSpaceOnUse" x1="830.8519" y1="1123.8734" x2="880.9323" y2="425.7725">
				<stop  offset="0" style="stop-color:#FFD3C6"/>
				<stop  offset="1" style="stop-color:#FFA08D"/>
			</linearGradient>
			<path class="st15" d="M929.7,488.3c0,0-20.6,33.5,0,43.2c20.6,9.7,42,17.4,42,17.4l-13.6,101.3c0,0-40.6,100.6-26.4,117.4
				c14.2,16.8,68.2,67.7,75.9,106.8c21.1,107.4-83.3,227.8-93.5,291.7c-5.5,34.5-22.8,188.1-91,295.5
				c-68.2,107.4-81,122.4-72.3,145.7s22.3,34.9-0.2,53s-45.8,55.5-46.4,101.3h-82.6c0,0-3.2-18.1,18.7-23.9
				c21.9-5.8,36.1-22.6,40.6-61.3s135.4-377.3,145.8-450.8s60.6-328.9,60.6-328.9l-72.9-6.8c0,0-2.9-41.1,3.2-117.1
				c2.4-30.3-55.1-126.1-36.1-154.1c14.3-21.2,54.8-85.1,57.4-92.9c0,0,32.9-1.9,36.1-11c3.2-9,20.6-58.5,20.6-58.5L929.7,488.3z"/>
			<path class="st11" d="M921.8,523.4l-46.9-8.7c-3.2,9-36.1,11-36.1,11c-2.6,7.7-43.1,71.7-57.4,92.9
				c-19,28.1,38.6,123.8,36.1,154.1c-0.7,9.1-1.3,17.6-1.8,25.7l138.4-6.3c-9.6-10.6-18-19.2-22.5-24.5
				c-14.2-16.8,26.4-117.4,26.4-117.4l13.6-101.3c0,0-21.4-7.7-42-17.4C925.6,529.6,923.1,526.7,921.8,523.4z"/>
			<linearGradient id="SVGID_3_" gradientUnits="userSpaceOnUse" x1="1103.1852" y1="1512.8816" x2="761.6055" y2="843.4076">
				<stop  offset="0" style="stop-color:#A4508E"/>
				<stop  offset="1" style="stop-color:#7F3872"/>
			</linearGradient>
			<path class="st16" d="M814.2,889.8c0,0,4.4,91.9,86.1,258.3c96.8,197.1,150.9,406.3,160.6,423.7s49.3,96.7,46.4,117.1
				s-39.7,12.6-44.5,32.9c-4.8,20.3,36.8,12.6,67.7,8.7c31-3.9,34.8-1,28.1-47.4s-30-59-15.5-90.9s-32.9-25.2-48.4-46.4
				c-14.6-20.1-27.5-272.7-102-364.6c-9.3-11.4-14.4-25.6-14.9-40.3l-6.1-179.4l-47.2-88L814.2,889.8z"/>
			<linearGradient id="SVGID_4_" gradientUnits="userSpaceOnUse" x1="960.9857" y1="437.6246" x2="865.5972" y2="378.7347">
				<stop  offset="0" style="stop-color:#FFD3C6"/>
				<stop  offset="1" style="stop-color:#FFA08D"/>
			</linearGradient>
			<path class="st17" d="M974.9,360.5c2.5,0.7,32,12.1,20.6,67.1c-11.4,55-27.1,90.7-49.3,84.3c-22.1-6.4-57.1-32.1-60-73.6
				S907.6,340.5,974.9,360.5z"/>
			<linearGradient id="SVGID_5_" gradientUnits="userSpaceOnUse" x1="819.5107" y1="1283.7659" x2="851.988" y2="845.7868">
				<stop  offset="0" style="stop-color:#A4508E"/>
				<stop  offset="1" style="stop-color:#7F3872"/>
			</linearGradient>
			<path class="st18" d="M931.6,767.5c-1.3-1.5-2.1-3.6-2.5-6.3c0,0,0,0,0,0c-68.2,30.1-111.8,5.7-111.8,5.7l0,0
				c0.2,2.1,0.3,4.1,0.1,5.8c-6.1,75.9-3.2,117.1-3.2,117.1l72.9,6.8c0,0-50.3,255.4-60.6,328.9c-10.3,73.5-141.2,412.1-145.8,450.8
				c-4.5,38.7-18.7,55.5-40.6,61.3c-21.9,5.8-18.7,23.9-18.7,23.9h82.6c0.6-45.8,23.9-83.2,46.4-101.3c22.6-18.1,9-29.8,0.2-53
				c-8.7-23.2,4.1-38.3,72.3-145.7s85.5-261,91-295.5c10.2-63.8,114.6-184.3,93.5-291.7C999.8,835.3,945.8,784.3,931.6,767.5z"/>
			<g>
				<path class="st13" d="M791.8,602.7c15.2-21.9,69-80.2,69-80.2l0,0c-10.2,2.5-22,3.2-22,3.2C836.6,532,809.6,575.3,791.8,602.7z"
					/>
				<polygon class="st13" points="789.5,606.3 789.5,606.3 789.5,606.3 				"/>
			</g>
			<path class="st11" d="M928.2,514.6c-0.9-7-7.8-9.1-13.8-10.3c-3.4-0.7-6.4-0.7-9.6,0.6c-2.3,0.9-5.5,3.5-7.7,0.8
				c-1-1.2-1-2.9-2.2-4.2c-1.5-1.6-3.6-2.2-5.6-1.4c-1,0.4-1.8,1.9-2.6,2.1c-2.4,0.7-3.2-2.1-4.5-3.2c-3.8-3.3-9.2-1.8-11.7,2.2
				c-3.9,6.2,0.2,16.2,1.5,22.6c0.6,3,5.3,1.8,4.7-1.3c-0.1-0.3-0.2-0.7-0.2-1.1c13,5.8,30.5,13.6,44.2,6.4
				C925.6,525.4,929,520.3,928.2,514.6z"/>
			<path class="st10" d="M752.9,1612.8c-3-25.8,17.9-57.2,25.7-67.8c1.1-1.5,0-3.6-1.8-3.6c-27.4-0.2-48.2-12.4-48.2-12.4l-2.6,7.6
				l0,0c-24.1,68.8-43.5,125.2-45.2,139.7c-4.5,38.7-18.7,55.5-40.6,61.3c-21.9,5.8-18.7,23.9-18.7,23.9h82.6
				c0.5-32.4,12.2-60.5,27-80.6v80.6h17.9l13.6-118.1c0.1-0.7,0.2-1.4,0.2-2.1l0-0.1l0,0C763.1,1632.7,757.8,1624.2,752.9,1612.8z"
				/>
			<path class="st10" d="M1196.9,1679.3c0,0-52.9-104.6-53.3-105.3l0,0c-5.8-8.6-21.9-11.3-35-17.6c-17.5-20.5-21-52.6-21.7-64.8
				c-0.1-2-2.4-3.1-4.1-1.9c-16.9,11.9-43.7,16.9-43.7,16.9l7.8,24.1l-0.2,0.1c7.1,22.4,11.8,37,14,41.1
				c9.7,17.4,49.3,96.7,46.4,117.1s-39.7,12.6-44.5,32.9c-4.8,20.3,36.8,12.6,67.7,8.7c31-3.9,34.8-1,28.1-47.4
				c-4.4-30-15.6-45.9-19.1-62l46.4,71.4L1196.9,1679.3z"/>
			<path class="st19" d="M931.6,767.5c-1.3-1.5-2.1-3.6-2.5-6.3c0,0,0,0,0,0c-68.2,30.1-111.8,5.7-111.8,5.7l0,0
				c0.2,2.1,0.3,4.1,0.1,5.8c-0.3,4.2-0.6,8.2-0.9,12.2c39.9,13.5,84.9,9.8,122.3-9.4C935.9,772.4,933.4,769.7,931.6,767.5z"/>
			<linearGradient id="SVGID_6_" gradientUnits="userSpaceOnUse" x1="995.2693" y1="669.6759" x2="950.9854" y2="860.3825">
				<stop  offset="0" style="stop-color:#EFB6C9"/>
				<stop  offset="1" style="stop-color:#D88FAB"/>
			</linearGradient>
			<path class="st20" d="M1007.5,874.4c-7.7-39.1-50.5-96.4-64.7-113.2c-14.2-16.8,15.2-111.1,15.2-111.1l13.6-101.3
				c0,0-21.4-7.7-42-17.4c0,0,18.9,95.3-8.6,140c-35.1,56.8-15.8,122.8-3.9,156.7c28.6,81.1,17.1,161.4-21.9,255.4
				c-3.2,7.8,4.7,15.6,12.5,12.2c21.2-9.2,53.3-21.5,77.4-23.3c9.1-0.6,16.6-7.4,18-16.4C1011.6,1001.2,1018.4,929.7,1007.5,874.4z"
				/>
			<circle class="st21" cx="852.7" cy="784.1" r="5.8"/>
			<g>
				<path class="st21" d="M886.5,791.7c1.6-0.2,3.2-0.4,4.8-0.7c-0.7-5.7-2.1-11.4-4.2-16.8c-1.6,0.3-3.3,0.5-4.9,0.8
					C884.4,780.3,885.8,785.9,886.5,791.7z"/>
				<path class="st21" d="M832.7,772.9c0-0.1,0-0.2,0-0.3c-1.7-0.4-3.2-0.9-4.6-1.3c0,0.1-0.1,0.2-0.1,0.3
					c-1.3,5.4-1.7,10.9-1.3,16.4c1.6,0.4,3.3,0.8,4.9,1.2C831.1,783.7,831.5,778.3,832.7,772.9z"/>
			</g>
			<path class="st13" d="M1038.2,765.4c-13.5-17.9-20.3-126.3-30.3-170.3c-10-44-36.2-46.3-36.2-46.3s-27.3,26.4-28.8,26.4
				s15.2,74.8,15.2,74.8s41,121.1,46.8,144.8c0.3,1.2,0.8,2.5,1.5,4l0,0c0,0,28.2,141.4,53.4,140.2c25.2-1.3,35.6-45.7,62.6-48
				C1149.4,888.8,1038.2,765.4,1038.2,765.4z"/>
			<path class="st9" d="M979.4,368.7c-18.7-21-48.9-27.2-74.4-15.6c-23.7,10.8-33.9,34.3-43.6,56.8c-3.6,8.4-7.3,17-12.4,24.6
				c-3.4,1.7-6.8,3.4-10.2,5.2c-9.7,4.9-20.6,9.1-29.2,15.8c-15.9,12.4-6.5,30.5,2.8,45.1c-2.8,5.2-6.5,9.9-8.4,15.6
				c-1.8,5.3-1.5,11.4,0.3,16.6c0.6,1.9,1.5,3.7,2.5,5.4c10.6-16.2,31.8-12.6,31.8-12.6c4.7-4.8,11.2-9.1,18.5-12.6
				c0.2-2.5,0.9-4.9,2.2-7.2c2.7-4.8,7.6-8.1,12.1-11.2c10.2-7,19.5-13.8,22.1-26.6c1.1-5.2,1.1-11.1,3-16.2
				c6.5-4.2,14.5-7,20.3-11.6c3.4-2.7,6.4-5.8,9-9.2c0.7-0.5,1.4-1,2.1-1.5c5.5-4.4,9.4-10.4,12.6-16.6
				c5.8-11.6,13.3-36.2,30.9-31.4c3.6,1,6-1.6,6.5-4.4C980.6,375.5,982,371.7,979.4,368.7z M831.8,452c-4.9,3.3-10.2,6.5-14.1,11
				c-3.9,4.5-6,10-5.5,15.9c0.5,6.5,3.7,12.3,1.8,18.5c-3.6-5.8-7-11.8-9-18.1c-3.9-11.7,2.7-19.7,12.4-25.3
				c9.3-5.3,18.9-10.2,28.6-14.9c-0.4,0.5-0.8,1-1.2,1.5C841,445.1,836.7,448.7,831.8,452z M908.9,442.2c-3.2,1.8-6.5,3.4-9.7,5.2
				c3.3-4.3,8.6-6.8,13.4-9.1c1.7-0.8,3.4-1.6,5.1-2.4C915,438.3,912,440.4,908.9,442.2z"/>
			<path class="st9" d="M1079.7,565.8c-3-7-7.6-13.4-10.1-20.6c2.4-6,6.5-12,8.8-16.1c5-9.1,5.5-18.6-0.1-27.6
				c-10-16.3-31.8-19.9-45.1-32.3c-1.1-2.2-2-4.4-2.9-6.6c-5.1-13.5-7.7-28.4-10.2-42.5c-2.5-13.8-5.4-26.7-13.1-38.7
				c-5.6-8.6-8.8-13.6-21-20.8c-8.4-5-23.3-9.1-32.2-3.7c-5.5,3.3-5,11-1.9,15.8c4.4,6.8,12.4,8.1,19.8,9c0.1,0,0.2,0,0.4,0
				c1.2,0.1,2.2,0.6,3.1,1.3c0.4,0.3,0.9,0.7,1.5,0.9c2.2,0.9,4.3,2.1,6.1,3.6c7.5,10.7,8.9,24.2,9.3,37.2c0.4,14,0.5,28.1,2.8,42
				c1.8,10.9,5.4,22.5,14.6,29.6c4.5,3.4,10.6,5.4,16.1,4.3c1.3,0.8,2.6,1.6,3.9,2.4c6.3,4.1,10.7,8.5,10.2,16.5
				c-0.4,7.5-3.4,14.7-3,22.3c0.4,9,5.4,15.9,10.8,22.7c4.4,5.5,12,15.1,5.2,21.6c-2.1,0.8-3.8,2.8-3,5.7c2.9,10.3,16.1,14,24.7,8.3
				C1085.6,592.5,1084.4,576.8,1079.7,565.8z M1002.8,483.7c-5.8-11.4-6.7-25.3-7.3-37.8c-0.8-15.7,0.6-33.3-4.6-48.5
				c4,7.3,6,16.1,6.7,24c1.5,16.9-0.2,34.2,5.1,50.6c2.2,6.8,5.5,13.2,10.2,18.7c2.6,3,5.7,5.4,9,7.6
				C1014.1,497.9,1006,490,1002.8,483.7z M1055.7,492.4c-5.3-3.6-10.7-6.9-15-11.8c-1.5-1.7-2.9-3.5-4.1-5.4
				c13.6,9.3,31.5,13.9,39.9,29c3.8,6.9,3.9,14.2,0.4,21.3c-2.5,5.1-6,9.6-8.6,14.6c-0.7-5.9,1-11.2,2.2-17.5
				C1073.3,508.8,1066.6,499.9,1055.7,492.4z"/>
		</g>
	</g>
</g>
</svg>
